<svg xmlns="http://www.w3.org/2000/svg" viewBox="0 0 236 40"><defs><style>.cls-4{fill:#404242}</style></defs><path d="M91.31 24.87l.3-.78A6.67 6.67 0 0 1 97.07 20l4.1-.24a.47.47 0 0 0 .43-.32.37.37 0 0 0 0-.34.33.33 0 0 0-.28-.15l-4-.24a2.85 2.85 0 0 1-2.26-1.12 3.2 3.2 0 0 1-.33-2.81l.73-2.52a.31.31 0 0 1 .18-.19l-1.07-.46a.59.59 0 0 1 0 .23l-1.06 2.79A6.67 6.67 0 0 1 88 18.71L69.34 19a.48.48 0 0 0-.43.33.35.35 0 0 0 0 .33.39.39 0 0 0 .29.16l18.55.18A2.87 2.87 0 0 1 90 21.12a3.17 3.17 0 0 1 .33 2.81l-.26.91a.44.44 0 0 1-.42.32h1.85a.22.22 0 0 1-.19-.29z" fill="#fff"/><path d="M90.08 24.84l.26-.91a3.17 3.17 0 0 0-.34-2.81A2.87 2.87 0 0 0 87.75 20l-18.51-.23a.39.39 0 0 1-.29-.16.35.35 0 0 1 0-.33.48.48 0 0 1 .43-.33L88 18.71a6.67 6.67 0 0 0 5.46-4.09l1.06-2.79a.59.59 0 0 0 0-.23.53.53 0 0 0 0-.13 12.17 12.17 0 0 0-23.39-1.26A5.47 5.47 0 0 0 62.45 14a5.56 5.56 0 0 0 .14 2A7.78 7.78 0 0 0 55 23.73a8.32 8.32 0 0 0 .08 1.12.37.37 0 0 0 .36.31h34.22a.44.44 0 0 0 .42-.32z" fill="#f58220"/><path d="M96.25 12h-.6a.31.31 0 0 0-.18.19l-.73 2.52a3.2 3.2 0 0 0 .33 2.81 2.85 2.85 0 0 0 2.26 1.12l4 .24a.33.33 0 0 1 .28.15.37.37 0 0 1 0 .34.47.47 0 0 1-.43.32l-4.1.24a6.67 6.67 0 0 0-5.46 4.09l-.3.78a.22.22 0 0 0 .2.29h14.11a.38.38 0 0 0 .37-.28 10.3 10.3 0 0 0 .37-2.74A10.11 10.11 0 0 0 96.25 12z" fill="#fbae40"/><path class="cls-4" d="M107.77 31.14a.91.91 0 1 1 .91-.91.92.92 0 0 1-.91.91m0-1.66a.74.74 0 0 0-.73.75.73.73 0 1 0 1.46 0 .74.74 0 0 0-.73-.75m.46 1.23H108l-.18-.35h-.25v.34h-.18v-1h.48a.31.31 0 0 1 .34.33.3.3 0 0 1-.21.3zm-.35-.53A.14.14 0 0 0 108 30c0-.11-.06-.15-.16-.15h-.3v.3zm-95.62-.96h2.34v6.39h4.08v2.04h-6.42v-8.43zm8.84 4.24a4.42 4.42 0 0 1 4.55-4.39 4.37 4.37 0 0 1 4.53 4.36 4.41 4.41 0 0 1-4.55 4.38 4.38 4.38 0 0 1-4.53-4.36m6.7 0a2.19 2.19 0 0 0-2.17-2.28 2.15 2.15 0 0 0-2.13 2.25 2.19 2.19 0 0 0 2.15 2.27 2.15 2.15 0 0 0 2.15-2.25M33 34v-4.78h2.37v4.69c0 1.21.62 1.79 1.56 1.79s1.55-.55 1.55-1.73v-4.75h2.37v4.68c0 2.72-1.55 3.91-4 3.91S33 36.59 33 34m11.47-4.78h3.25c3 0 4.76 1.74 4.76 4.17 0 2.44-1.77 4.24-4.81 4.24h-3.2zm3.29 6.36a2.07 2.07 0 0 0 2.32-2.13 2.08 2.08 0 0 0-2.32-2.14h-.95v4.29zm8.11-6.36h6.75v2.05h-4.41v1.43h3.99v1.94h-3.99v3.01h-2.34v-8.43zm10 0h2.33v6.39h4.09v2.04h-6.42v-8.43zm12.52-.06h2.25l3.59 8.49h-2.5l-.62-1.5h-3.25l-.6 1.5H74.8zm2 5.17l-.94-2.4-1 2.4zm6.85-5.11h4a3.65 3.65 0 0 1 2.74.92 2.58 2.58 0 0 1 .75 2A2.66 2.66 0 0 1 93 34.71l2 2.94h-2.7l-1.7-2.55h-1v2.55h-2.36zm3.88 4.05c.8 0 1.25-.39 1.25-1 0-.67-.48-1-1.26-1h-1.53v2zm6.97-4.05h6.78v1.99h-4.46v1.28h4.04v1.84h-4.04v1.34h4.52v1.98h-6.84v-8.43zM7.15 34.45a2.07 2.07 0 0 1-1.93 1.26 2.19 2.19 0 0 1-2.16-2.27 2.15 2.15 0 0 1 2.13-2.25 2.11 2.11 0 0 1 2 1.4h2.47a4.4 4.4 0 0 0-4.44-3.51 4.42 4.42 0 0 0-4.55 4.36 4.37 4.37 0 0 0 4.52 4.36 4.45 4.45 0 0 0 4.43-3.37zm114.95-6.14h-4.73v-3.63h4.73V20h3.72v4.69h4.73v3.63h-4.73V33h-3.72z"/><g><path class="cls-4" d="M212.22 12.11v25.4h-3.38v-25.4zm-50.43 25.35h-6.91l-1.18-4.23h-7.58l-1.33 4.23h-6.91l8.19-25.86h7.68zM147.66 28h4.55l-2.25-8zm21.86 9.42H163V11.65h9.52c2.87 0 5.17.61 6.76 1.88A7.92 7.92 0 0 1 182 20a8.56 8.56 0 0 1-2.66 6.67c-1.59 1.27-3.89 1.88-6.76 1.88h-3zm0-14.56h3c3 0 3.38-1.17 3.38-2.95s-.39-2.91-3.36-2.91h-3zm64.72 11.15A14.46 14.46 0 0 1 229 35c-6 0-9.88-4.17-9.88-10.58 0-5.81 3.84-9.93 9.26-9.93A10.11 10.11 0 0 1 234 16l.87-2.85a9.46 9.46 0 0 0-1.59-.72 14.14 14.14 0 0 0-4.81-.86 12.62 12.62 0 0 0-12.81 13c0 7.79 5.43 13.29 13.16 13.29a17.09 17.09 0 0 0 3.54-.41 12.33 12.33 0 0 0 2.66-.92zm-32.67 3.36l-14-19.7v19.69h-3.23V12.11h3.07L200.91 31V12.11h3.22v25.25h-2.56z"/></g></svg>
