<svg viewBox="0 0 492 698" xmlns="http://www.w3.org/2000/svg"><defs><linearGradient x1="-229.906%" y1="245.597%" x2="109.599%" y2="7.738%" id="a"><stop stop-color="#7E77B6" offset="66.5%"/><stop stop-color="#B778B1" offset="100%"/></linearGradient><linearGradient x1="-127.548%" y1="78.146%" x2="232.704%" y2="21.037%" id="b"><stop stop-color="#7E77B6" offset="0%"/><stop stop-color="#7E78B6" offset=".4%"/><stop stop-color="#7B98C9" offset="27.8%"/><stop stop-color="#79AFD6" offset="54.1%"/><stop stop-color="#77BDDE" offset="78.8%"/><stop stop-color="#77C2E1" offset="100%"/></linearGradient><linearGradient x1="-181.412%" y1="50%" y2="50%" id="c"><stop stop-color="#D9E4F4" offset="0%"/><stop stop-color="#EDF2F8" offset="100%"/></linearGradient><linearGradient x1="-181.413%" y1="50%" y2="50%" id="d"><stop stop-color="#EDF2F8" offset="0%"/><stop stop-color="#D9E4F4" offset="100%"/></linearGradient><linearGradient x1="-64976.7%" y1="33984.9%" x2="52663.3%" y2="33984.9%" id="e"><stop stop-color="#D9E4F4" offset="0%"/><stop stop-color="#EDF2F8" offset="100%"/></linearGradient><linearGradient x1="-63920.4%" y1="33338%" x2="53719.5%" y2="33338%" id="f"><stop stop-color="#EDF2F8" offset="0%"/><stop stop-color="#D9E4F4" offset="100%"/></linearGradient><linearGradient x1="-64326.7%" y1="32769.3%" x2="53313.3%" y2="32769.3%" id="g"><stop stop-color="#D9E4F4" offset="0%"/><stop stop-color="#EDF2F8" offset="100%"/></linearGradient><linearGradient x1="-64326.7%" y1="31631.7%" x2="53313.3%" y2="31631.7%" id="h"><stop stop-color="#EDF2F8" offset="0%"/><stop stop-color="#D9E4F4" offset="100%"/></linearGradient><linearGradient x1="-67.71%" y1="81.443%" x2="164.726%" y2="17.739%" id="i"><stop stop-color="#7E8CC2" offset="14.4%"/><stop stop-color="#77C2E1" offset="100%"/></linearGradient><linearGradient x1="-181.412%" y1="50%" y2="50%" id="j"><stop stop-color="#7E77B6" offset="0%"/><stop stop-color="#B778B1" offset="100%"/></linearGradient><linearGradient x1="-4026.6%" y1="3970.482%" x2="34782.1%" y2="1060.643%" id="k"><stop stop-color="#7E8CC2" offset="14.4%"/><stop stop-color="#77C2E1" offset="100%"/></linearGradient><linearGradient x1="-51112.1%" y1="30788.3%" x2="55480.7%" y2="30788.3%" id="l"><stop stop-color="#7E77B6" offset="0%"/><stop stop-color="#B778B1" offset="100%"/></linearGradient><linearGradient x1="-190.06%" y1="218.792%" x2="102.201%" y2="13.735%" id="m"><stop stop-color="#7E77B6" offset="57.2%"/><stop stop-color="#B778B1" offset="100%"/></linearGradient><linearGradient x1="-51700%" y1="6752.4%" x2="55804.8%" y2="6752.4%" id="n"><stop stop-color="#7E77B6" offset="0%"/><stop stop-color="#B778B1" offset="100%"/></linearGradient><linearGradient x1="-51700%" y1="54558.5%" x2="55804.8%" y2="54558.5%" id="o"><stop stop-color="#7E77B6" offset="0%"/><stop stop-color="#B778B1" offset="100%"/></linearGradient><linearGradient x1="-51700%" y1="6952.9%" x2="55804.8%" y2="6952.9%" id="p"><stop stop-color="#7E77B6" offset="0%"/><stop stop-color="#B778B1" offset="100%"/></linearGradient><linearGradient x1="-51700%" y1="54550.3%" x2="55804.8%" y2="54550.3%" id="q"><stop stop-color="#7E77B6" offset="0%"/><stop stop-color="#B778B1" offset="100%"/></linearGradient><linearGradient x1="-9.926%" y1="92.895%" x2="109.927%" y2="7.105%" id="r"><stop stop-color="#7E77B6" offset="0%"/><stop stop-color="#77C2E1" offset="100%"/></linearGradient><linearGradient x1="-12.426%" y1="91.7%" x2="112.426%" y2="8.3%" id="s"><stop stop-color="#CCE3EF" stop-opacity=".636" offset="5.6%"/><stop stop-color="#7E77B6" offset="100%"/></linearGradient><linearGradient x1="-502.477%" y1="76.185%" x2="602.481%" y2="23.815%" id="t"><stop stop-color="#7E77B6" offset="0%"/><stop stop-color="#7D7DB9" offset="20.4%"/><stop stop-color="#7C8DC3" offset="46.8%"/><stop stop-color="#79A7D2" offset="76.3%"/><stop stop-color="#77C2E1" offset="100%"/></linearGradient><linearGradient x1="0%" y1="50%" y2="50%" id="v"><stop stop-color="#7E81BD" offset="0%"/><stop stop-color="#7C93C7" offset="89%"/><stop stop-color="#7C96C8" offset="100%"/></linearGradient><linearGradient x1="-3.031%" y1="50%" x2="103.031%" y2="50%" id="u"><stop stop-color="#8077B7" offset="0%"/><stop stop-color="#8077B7" offset="100%"/></linearGradient><linearGradient x1="34823.6%" y1="6752.4%" x2="56700%" y2="6752.4%" id="x"><stop stop-color="#7E81BD" offset="0%"/><stop stop-color="#7C93C7" offset="89%"/><stop stop-color="#7C96C8" offset="100%"/></linearGradient><linearGradient x1="48992.6%" y1="6752.4%" x2="55954.8%" y2="6752.4%" id="w"><stop stop-color="#8077B7" offset="0%"/><stop stop-color="#8077B7" offset="100%"/></linearGradient><linearGradient x1="263611.2%" y1="6952.9%" x2="285487.5%" y2="6952.9%" id="z"><stop stop-color="#7E81BD" offset="0%"/><stop stop-color="#7C93C7" offset="89%"/><stop stop-color="#7C96C8" offset="100%"/></linearGradient><linearGradient x1="17452.8%" y1="6952.9%" x2="24817.4%" y2="6952.9%" id="y"><stop stop-color="#8077B7" offset="0%"/><stop stop-color="#8077B7" offset="100%"/></linearGradient><linearGradient x1="263614.4%" y1="54550.3%" x2="285490.8%" y2="54550.3%" id="B"><stop stop-color="#7E81BD" offset="0%"/><stop stop-color="#7C93C7" offset="89%"/><stop stop-color="#7C96C8" offset="100%"/></linearGradient><linearGradient x1="17452.8%" y1="54550.3%" x2="24440.3%" y2="54550.3%" id="A"><stop stop-color="#8077B7" offset="0%"/><stop stop-color="#8077B7" offset="100%"/></linearGradient><linearGradient x1="34823.6%" y1="54558.5%" x2="56700%" y2="54558.5%" id="D"><stop stop-color="#7E81BD" offset="0%"/><stop stop-color="#7C93C7" offset="89%"/><stop stop-color="#7C96C8" offset="100%"/></linearGradient><linearGradient x1="48983.8%" y1="54558.5%" x2="55954.8%" y2="54558.5%" id="C"><stop stop-color="#8077B7" offset="0%"/><stop stop-color="#8077B7" offset="100%"/></linearGradient></defs><g transform="translate(0 1)" fill="none" fill-rule="evenodd"><path d="M469.76 23.3H98.028v-2.338h-49.5V23.3H30.489C13.73 23.3.144 34.57.144 48.471v565.6c.033 1.046.193 2.085.478 3.092.969 5.2 3.368 9.478 6.525 11.84a5.472 5.472 0 0 0 3.515 1.712c.681.18 1.382.274 2.086.281h456.679c5.634 0 10.2-3.816 10.2-8.524l.42-127.95V31.888c.001-4.741-4.606-8.588-10.287-8.588z" opacity=".4" fill="#7C96C8" fill-rule="nonzero"/><path d="M464.427 79.153H95.848V619.8h368.579c5.634 0 10.2-3.871 10.2-8.647V87.8c0-4.775-4.567-8.647-10.2-8.647z" fill="url(#a)" fill-rule="nonzero"/><path d="M10.144 79.153v521.419c0 10.617 5.644 19.224 12.605 19.224h73.1V79.153H10.144z" fill="url(#b)" fill-rule="nonzero"/><path fill="#7E77B6" fill-rule="nonzero" opacity=".3" d="M112.843 609.393v87.604l35.623-22.593 35.624 22.593V609.393z"/><path d="M453.7 54.778H40.599l.001 524.67c-.103 8.716 6.878 15.867 15.594 15.973H453.7c6.314 0 11.433-3.871 11.433-8.647V63.425c0-4.775-5.119-8.647-11.433-8.647z" fill="url(#c)" fill-rule="nonzero"/><path d="M453.875 47.465H47.1v524.67c0 8.822 6.875 15.973 15.355 15.973h391.42c6.217 0 11.258-3.871 11.258-8.647V56.113c0-4.776-5.04-8.648-11.258-8.648z" fill="url(#d)" fill-rule="nonzero"/><path d="M447.375 38.528H40.6V563.2c0 8.822 6.875 15.973 15.355 15.973h391.42c6.217 0 11.258-3.871 11.258-8.647V47.175c0-4.775-5.041-8.647-11.258-8.647z" fill="url(#e)" fill-rule="nonzero"/><path d="M457.938 32.059H51.16v524.67c0 8.822 6.875 15.973 15.355 15.973h391.423c6.217 0 11.258-3.871 11.258-8.647V40.706c.004-4.776-5.041-8.647-11.258-8.647z" fill="url(#f)" fill-rule="nonzero"/><path d="M453.875 26.371H47.1v524.67c0 8.822 6.875 15.973 15.355 15.973h391.42c6.217 0 11.258-3.871 11.258-8.647V35.019c0-4.776-5.04-8.648-11.258-8.648z" fill="url(#g)" fill-rule="nonzero"/><path d="M453.875 15H47.1v524.67c0 8.822 6.875 15.973 15.355 15.973h391.42c6.217 0 11.258-3.871 11.258-8.647V23.644c0-4.776-5.04-8.644-11.258-8.644z" fill="url(#h)" fill-rule="nonzero"/><rect fill="#6C689B" fill-rule="nonzero" x="30.877" y="539.181" width="24" height="55.665" rx="12"/><path d="M40.489 3.337c-16.759 0-30.345 11.432-30.345 25.534V572.7c0-14.1 13.586-25.534 30.345-25.534h125.7V3.337h-125.7z" fill="url(#i)" fill-rule="nonzero"/><path d="M463.928 5.949H95.349v540.857h368.579c5.634 0 10.2-3.873 10.2-8.651V14.6c0-4.778-4.567-8.651-10.2-8.651z" fill="url(#j)" fill-rule="nonzero"/><path d="M53.168 3.337c-16.759 0-30.345 11.428-30.345 25.525v54.976a3.694 3.694 0 0 0-3.676-3.691H13.82a3.694 3.694 0 0 0-3.676 3.691v518.789c0 4.973 5.566 16.884 10.518 16.884 0 0 2.088.286 2.161-3.453V572.5c0-14.1 13.586-25.525 30.345-25.525h125.7V3.337h-125.7z" fill="url(#k)" fill-rule="nonzero"/><path d="M476.607 5.949H108.028v541.868h368.579c5.634 0 10.2-3.88 10.2-8.667V14.616c0-4.787-4.567-8.667-10.2-8.667z" fill="url(#l)" fill-rule="nonzero"/><path fill="url(#m)" fill-rule="nonzero" d="M423.426 3.337H178.674l-70.646 70.385V481.19l66.875 66.627h248.435l66.71-66.463V69.712z"/><path d="M490.048 12.046c0-4.81-4.606-8.709-10.288-8.709h-56.334l66.621 66.375.001-57.666z" fill="url(#n)" fill-rule="nonzero"/><path d="M479.76 547.817c5.682 0 10.288-3.9 10.288-8.709v-57.754l-66.71 66.463h56.422z" fill="url(#o)" fill-rule="nonzero"/><path fill="url(#p)" fill-rule="nonzero" d="M108.028 3.337v70.385l70.646-70.385z"/><path fill="url(#q)" fill-rule="nonzero" d="M108.028 547.817h66.875l-66.875-66.627z"/><path fill="url(#r)" fill-rule="nonzero" d="M95.848 575.139v107.487l38.469-27.72 38.469 27.72V575.139z"/><path fill="url(#s)" fill-rule="nonzero" d="M103.807 575.078v91.609l30.597-23.626L165 666.687v-91.609z"/><path fill="url(#t)" fill-rule="nonzero" d="M81.506 5.949h25.634v540.857H81.506z"/><path stroke="url(#u)" stroke-width="3" fill="url(#v)" fill-rule="nonzero" stroke-linecap="round" stroke-linejoin="round" d="M58.533.962h49.495v547.043H58.533z"/><path d="M448.421 524.2a3.362 3.362 0 1 1 .002-6.724 3.362 3.362 0 0 1-.002 6.724zm0-5.153a1.791 1.791 0 1 0 0 3.584 1.791 1.791 0 0 0 0-3.585v.001zM438.258 512.5a3.363 3.363 0 1 1-.002-6.726 3.363 3.363 0 0 1 .002 6.726zm0-5.154a1.791 1.791 0 1 0 1.791 1.791c0-.99-.801-1.793-1.791-1.794v.003zM401.925 524.2a3.362 3.362 0 1 1 .002-6.724 3.362 3.362 0 0 1-.002 6.724zm0-5.153a1.791 1.791 0 1 0 0 3.584 1.791 1.791 0 0 0 0-3.585v.001zM448.858 477.7a3.363 3.363 0 1 1 0-6.726 3.363 3.363 0 0 1 0 6.726zm0-5.154a1.791 1.791 0 1 0 1.791 1.791 1.793 1.793 0 0 0-1.791-1.788v-.003zM401.925 454.455a3.363 3.363 0 1 1 0-6.726 3.363 3.363 0 0 1 0 6.726zm0-5.154a1.791 1.791 0 1 0 0 3.584 1.791 1.791 0 0 0 0-3.585v.001zM471.67 524.2a3.362 3.362 0 1 1 .002-6.724 3.362 3.362 0 0 1-.002 6.724zm0-5.153a1.791 1.791 0 1 0 0 3.584 1.791 1.791 0 0 0 0-3.585v.001z" fill="#C2D6ED" fill-rule="nonzero"/><path d="M482.679 535H377.891v-14.95h21.457v1.572h-19.886v11.807h101.646v-23.681h-23.364v-39.795c-.014-9.977-8.098-18.061-18.075-18.075H404.5v-1.572h35.167c10.846.012 19.635 8.801 19.647 19.647v38.223h23.364l.001 26.824z" fill="#C2D6ED" fill-rule="nonzero"/><path fill="#C2D6ED" fill-rule="nonzero" d="M446.282 475.126h-45.143v-12.41h1.572v10.838h43.571zM415.788 461.93h22.47v1.572h-22.47z"/><path fill="#C2D6ED" fill-rule="nonzero" d="M418.919 465.381l-2.667-2.665 2.667-2.664h-2.263l-2.664 2.664 2.664 2.665zM471.67 500.951a3.363 3.363 0 1 1 0-6.726 3.363 3.363 0 0 1 0 6.726zm0-5.154a1.791 1.791 0 1 0 1.791 1.791 1.793 1.793 0 0 0-1.791-1.788v-.003z"/><path fill="#C2D6ED" fill-rule="nonzero" d="M470.884 476.137h1.572v18.875h-1.572z"/><path fill="#C2D6ED" fill-rule="nonzero" d="M474.334 479.267l-2.664-2.666-2.665 2.666v-2.262l2.665-2.665 2.664 2.665zM450.998 520.051h18.095v1.572h-18.095zM439.044 521.687h-23.848V509.92h-11.475v-1.572h13.047v11.767h20.704v-8.406h1.572z"/><path fill="#C2D6ED" fill-rule="nonzero" d="M406.852 506.469l-2.666 2.665 2.666 2.664h-2.263l-2.664-2.664 2.664-2.665zM379.757 489.956a3.363 3.363 0 1 1 0-6.726 3.363 3.363 0 0 1 0 6.726zm0-5.154a1.791 1.791 0 1 0 0 3.586 1.791 1.791 0 0 0 0-3.588v.002zM379.757 466.708a3.363 3.363 0 1 1 0-6.726 3.363 3.363 0 0 1 0 6.726zm0-5.154a1.791 1.791 0 1 0 0 3.582 1.791 1.791 0 0 0 0-3.582z"/><path fill="#C2D6ED" fill-rule="nonzero" d="M393.792 509.369h-14.888l.067-20.201 1.572.005-.062 18.624h11.739v-43.666h-9.886v-1.571h11.458zM425.024 437.677a3.363 3.363 0 1 1-.002-6.726 3.363 3.363 0 0 1 .002 6.726zm0-5.154a1.791 1.791 0 1 0 0 3.582 1.791 1.791 0 0 0 0-3.582z"/><path fill="#C2D6ED" fill-rule="nonzero" d="M414.379 433.528h8.068v1.572h-8.068z"/><path fill="#C2D6ED" fill-rule="nonzero" d="M417.51 431.65l-2.666 2.664 2.666 2.665h-2.263l-2.664-2.665 2.664-2.664zM403.844 495.1a3.362 3.362 0 1 1 .002-6.724 3.362 3.362 0 0 1-.002 6.724zm0-5.153a1.791 1.791 0 1 0 0 3.584 1.791 1.791 0 0 0 0-3.585v.001z"/><path fill="#C2D6ED" fill-rule="nonzero" d="M406.421 490.951h30.698v1.572h-30.698z"/><path fill="#C2D6ED" fill-rule="nonzero" d="M433.988 494.401l2.666-2.664-2.666-2.665h2.263l2.664 2.665-2.664 2.664zM448.858 510.815a3.363 3.363 0 1 1 0-6.726 3.363 3.363 0 0 1 0 6.726zm0-5.154a1.791 1.791 0 1 0 0 3.582 1.791 1.791 0 0 0 0-3.582z"/><path fill="#C2D6ED" fill-rule="nonzero" d="M448.073 496.808h1.572v8.067h-1.572z"/><path fill="#C2D6ED" fill-rule="nonzero" d="M451.523 499.939l-2.664-2.666-2.665 2.666v-2.263l2.665-2.664 2.664 2.664zM364.422 536.7a3.362 3.362 0 1 1 .002-6.724 3.362 3.362 0 0 1-.002 6.724zm0-5.153a1.791 1.791 0 1 0 1.791 1.791 1.793 1.793 0 0 0-1.791-1.787v-.004z"/><path fill="#C2D6ED" fill-rule="nonzero" d="M363.636 522.698h1.572v8.067h-1.572z"/><path fill="#C2D6ED" fill-rule="nonzero" d="M367.086 525.828l-2.664-2.666-2.665 2.666v-2.262l2.665-2.665 2.664 2.665zM471.67 466.362a3.363 3.363 0 1 1-.002-6.726 3.363 3.363 0 0 1 .002 6.726zm0-5.154a1.791 1.791 0 1 0 0 3.58 1.791 1.791 0 0 0 0-3.579v-.001z"/><path fill="#C2D6ED" fill-rule="nonzero" d="M470.884 392.191h1.572v68.232h-1.572z"/><path fill="#C2D6ED" fill-rule="nonzero" d="M474.334 395.322l-2.664-2.667-2.665 2.667v-2.263l2.665-2.665 2.664 2.665zM426.325 417.005a3.363 3.363 0 1 1 0-6.726 3.363 3.363 0 0 1 0 6.726zm0-5.154a1.791 1.791 0 1 0 0 3.58 1.791 1.791 0 0 0 0-3.579v-.001z"/><path d="M442.448 437.677H436.9v-23.249h-8v-1.572h9.572V436.1h3.974c10.026-.011 18.151-8.136 18.162-18.162v-25.747h1.572v25.752c-.012 10.893-8.839 19.72-19.732 19.734z" fill="#C2D6ED" fill-rule="nonzero"/><path fill="#C2D6ED" fill-rule="nonzero" d="M458.73 395.322l2.665-2.667 2.665 2.667v-2.263l-2.665-2.665-2.665 2.665zM148.954 520.789a3.363 3.363 0 1 1 6.726-.002 3.363 3.363 0 0 1-6.726.002zm1.572 0a1.791 1.791 0 1 0 3.582.004 1.791 1.791 0 0 0-3.582-.004zM159.117 509.086a3.363 3.363 0 1 1 6.726-.002 3.363 3.363 0 0 1-6.726.002zm1.572 0a1.791 1.791 0 1 0 3.582 0 1.791 1.791 0 0 0-3.582 0zM195.451 520.789a3.363 3.363 0 1 1 6.726-.002 3.363 3.363 0 0 1-6.726.002zm1.572 0a1.791 1.791 0 1 0 3.584.004 1.791 1.791 0 0 0-3.585-.004h.001zM148.517 474.292a3.363 3.363 0 1 1 6.726 0 3.363 3.363 0 0 1-6.726 0zm1.572 0a1.791 1.791 0 1 0 3.582 0 1.791 1.791 0 0 0-3.582 0zM195.451 451.044a3.363 3.363 0 1 1 6.726-.002 3.363 3.363 0 0 1-6.726.002zm1.572 0a1.791 1.791 0 1 0 3.584 0 1.791 1.791 0 0 0-3.585 0h.001zM125.706 520.789a3.363 3.363 0 1 1 6.726-.002 3.363 3.363 0 0 1-6.726.002zm1.572 0a1.791 1.791 0 1 0 3.584.004 1.791 1.791 0 0 0-3.585-.004h.001zM125.706 497.541a3.363 3.363 0 1 1 6.726 0 3.363 3.363 0 0 1-6.726 0zm1.572 0a1.791 1.791 0 1 0 3.584 0 1.791 1.791 0 0 0-3.585 0h.001z"/><path d="M118.059 534.953h104.789V520H201.39v1.572h19.886v11.807H119.63V509.7h23.364v-39.795c.014-9.977 8.098-18.061 18.075-18.075h35.167v-1.572h-35.167c-10.846.012-19.635 8.801-19.647 19.647v38.223h-23.363v26.825z" fill="#C2D6ED" fill-rule="nonzero"/><path fill="#C2D6ED" fill-rule="nonzero" d="M154.456 475.078h45.143v-12.41h-1.572v10.838h-43.571zM162.48 461.882h22.47v1.572h-22.47z"/><path fill="#C2D6ED" fill-rule="nonzero" d="M181.82 465.333l2.666-2.665-2.666-2.664h2.262l2.665 2.664-2.665 2.665zM128.283 476.089h1.572v18.875h-1.572z"/><path fill="#C2D6ED" fill-rule="nonzero" d="M126.404 479.22l2.664-2.667 2.665 2.667v-2.263l-2.665-2.664-2.664 2.664zM131.645 520.003h18.095v1.572h-18.095zM161.694 521.639h23.848v-11.767h11.475V508.3H183.97v11.768h-20.704v-8.407h-1.572z"/><path fill="#C2D6ED" fill-rule="nonzero" d="M193.886 506.421l2.666 2.665-2.666 2.664h2.263l2.664-2.664-2.664-2.665zM217.618 486.546a3.363 3.363 0 1 1 6.726 0 3.363 3.363 0 0 1-6.726 0zm1.572 0a1.791 1.791 0 1 0 3.582 0 1.791 1.791 0 0 0-3.582 0zM217.618 463.3a3.363 3.363 0 1 1 6.726-.002 3.363 3.363 0 0 1-6.726.002zm1.572 0a1.791 1.791 0 1 0 3.582 0 1.791 1.791 0 0 0-3.582 0z"/><path fill="#C2D6ED" fill-rule="nonzero" d="M206.946 509.321h14.888l-.067-20.201-1.572.005.062 18.625h-11.739v-43.666h9.886v-1.572h-11.458zM172.352 434.267a3.363 3.363 0 1 1 6.726-.002 3.363 3.363 0 0 1-6.726.002zm1.572 0a1.791 1.791 0 1 0 3.582 0 1.791 1.791 0 0 0-3.582 0z"/><path fill="#C2D6ED" fill-rule="nonzero" d="M178.291 433.481h8.068v1.572h-8.068z"/><path fill="#C2D6ED" fill-rule="nonzero" d="M183.228 431.602l2.666 2.665-2.666 2.664h2.263l2.664-2.664-2.664-2.665zM193.531 491.689a3.363 3.363 0 1 1 6.726-.002 3.363 3.363 0 0 1-6.726.002zm1.572 0a1.791 1.791 0 1 0 1.791-1.791c-.99 0-1.793.801-1.794 1.791h.003z"/><path fill="#C2D6ED" fill-rule="nonzero" d="M163.619 490.903h30.698v1.572h-30.698z"/><path fill="#C2D6ED" fill-rule="nonzero" d="M166.75 494.354l-2.666-2.665 2.666-2.664h-2.263l-2.664 2.664 2.664 2.665zM148.517 507.4a3.363 3.363 0 1 1 6.726 0 3.363 3.363 0 0 1-6.726 0zm1.572 0a1.791 1.791 0 1 0 3.582 0 1.791 1.791 0 0 0-3.582 0z"/><path fill="#C2D6ED" fill-rule="nonzero" d="M151.094 496.76h1.572v8.067h-1.572z"/><path fill="#C2D6ED" fill-rule="nonzero" d="M149.215 499.891l2.665-2.666 2.664 2.666v-2.263l-2.664-2.664-2.665 2.664zM232.954 533.294a3.363 3.363 0 1 1 6.726-.002 3.363 3.363 0 0 1-6.726.002zm1.572 0a1.791 1.791 0 1 0 3.584 0 1.791 1.791 0 0 0-3.585 0h.001z"/><path fill="#C2D6ED" fill-rule="nonzero" d="M235.531 522.65h1.572v8.067h-1.572z"/><path fill="#C2D6ED" fill-rule="nonzero" d="M233.652 525.781l2.664-2.666 2.665 2.666v-2.263l-2.665-2.664-2.664 2.664zM125.706 462.952a3.363 3.363 0 1 1 6.726 0 3.363 3.363 0 0 1-6.726 0zm1.572 0a1.791 1.791 0 1 0 3.584 0 1.791 1.791 0 0 0-3.585 0h.001z"/><path fill="#C2D6ED" fill-rule="nonzero" d="M128.283 392.143h1.572v68.232h-1.572z"/><path fill="#C2D6ED" fill-rule="nonzero" d="M126.404 395.274l2.664-2.666 2.665 2.666v-2.263l-2.665-2.664-2.664 2.664zM171.05 413.595a3.363 3.363 0 1 1 6.726 0 3.363 3.363 0 0 1-6.726 0zm1.572 0a1.791 1.791 0 1 0 3.582 0 1.791 1.791 0 0 0-3.582 0z"/><path d="M158.291 437.629h5.546v-23.248h8v-1.572h-9.572v23.248h-3.974c-10.024-.011-18.148-8.133-18.162-18.157v-25.757h-1.572V417.9c.015 10.892 8.842 19.717 19.734 19.729z" fill="#C2D6ED" fill-rule="nonzero"/><path fill="#C2D6ED" fill-rule="nonzero" d="M142.008 395.274l-2.665-2.666-2.664 2.666v-2.263l2.664-2.664 2.665 2.664zM152.525 26.5a3.362 3.362 0 1 1-.002 6.724 3.362 3.362 0 0 1 .002-6.724zm0 5.153a1.791 1.791 0 1 0 0-3.584 1.791 1.791 0 0 0 0 3.585v-.001zM162.688 38.2a3.363 3.363 0 1 1 .002 6.726 3.363 3.363 0 0 1-.002-6.726zm0 5.154a1.791 1.791 0 1 0-1.267-.523c.336.337.791.526 1.267.527v-.004zM199.022 26.5a3.362 3.362 0 1 1-.002 6.724 3.362 3.362 0 0 1 .002-6.724zm0 5.153a1.791 1.791 0 1 0 0-3.584 1.791 1.791 0 0 0 0 3.585v-.001zM152.088 73a3.363 3.363 0 1 1 0 6.726 3.363 3.363 0 0 1 0-6.726zm0 5.154a1.791 1.791 0 1 0-1.791-1.791 1.793 1.793 0 0 0 1.791 1.788v.003zM199.022 96.246a3.363 3.363 0 1 1 0 6.726 3.363 3.363 0 0 1 0-6.726zm0 5.154a1.791 1.791 0 1 0 0-3.582 1.791 1.791 0 0 0 0 3.582zM129.277 26.5a3.362 3.362 0 1 1-.002 6.724 3.362 3.362 0 0 1 .002-6.724zm0 5.153a1.791 1.791 0 1 0 0-3.584 1.791 1.791 0 0 0 0 3.585v-.001zM129.277 49.749a3.363 3.363 0 1 1 0 6.726 3.363 3.363 0 0 1 0-6.726zm0 5.154a1.791 1.791 0 1 0-1.791-1.791 1.793 1.793 0 0 0 1.791 1.788v.003z"/><path d="M118.267 15.7h104.789v14.95H201.6v-1.572h19.886V17.271H119.839v23.682H143.2v39.795c.014 9.977 8.098 18.061 18.075 18.075h35.167v1.572h-35.164c-10.846-.012-19.635-8.801-19.647-19.647V42.525h-23.364V15.7z" fill="#C2D6ED" fill-rule="nonzero"/><path fill="#C2D6ED" fill-rule="nonzero" d="M154.665 75.575h45.143v12.41h-1.572V77.146h-43.571zM162.688 87.199h22.47v1.572h-22.47z"/><path fill="#C2D6ED" fill-rule="nonzero" d="M182.028 85.32l2.666 2.664-2.666 2.665h2.262l2.665-2.665-2.665-2.664zM128.491 55.689h1.572v18.875h-1.572z"/><path fill="#C2D6ED" fill-rule="nonzero" d="M126.612 71.433l2.665 2.666 2.664-2.666v2.263l-2.664 2.664-2.665-2.664zM131.854 29.078h18.095v1.572h-18.095zM161.902 29.013h23.849v11.768h11.474v1.572h-13.046V30.585h-20.705v8.407h-1.572z"/><path fill="#C2D6ED" fill-rule="nonzero" d="M194.095 44.232l2.666-2.665-2.666-2.665h2.262l2.665 2.665-2.665 2.665zM221.189 60.744a3.363 3.363 0 1 1 0 6.726 3.363 3.363 0 0 1 0-6.726zm0 5.154a1.791 1.791 0 1 0 0-3.586 1.791 1.791 0 0 0 0 3.588v-.002zM221.189 83.993a3.363 3.363 0 1 1 0 6.726 3.363 3.363 0 0 1 0-6.726zm0 5.154a1.791 1.791 0 1 0 0-3.58 1.791 1.791 0 0 0 0 3.579v.001z"/><path fill="#C2D6ED" fill-rule="nonzero" d="M207.154 41.331h14.888l-.067 20.202-1.571-.006.062-18.624h-11.74v43.666h9.887v1.572h-11.459zM175.923 113.024a3.363 3.363 0 1 1 .002 6.726 3.363 3.363 0 0 1-.002-6.726zm0 5.154a1.791 1.791 0 1 0 0-3.58 1.791 1.791 0 0 0 0 3.579v.001z"/><path fill="#C2D6ED" fill-rule="nonzero" d="M178.5 115.6h8.068v1.572H178.5z"/><path fill="#C2D6ED" fill-rule="nonzero" d="M183.437 119.051l2.666-2.665-2.666-2.664h2.262l2.665 2.664-2.665 2.665zM197.1 55.6a3.362 3.362 0 1 1-.002 6.724 3.362 3.362 0 0 1 .002-6.724zm0 5.153a1.791 1.791 0 1 0 0-3.584 1.791 1.791 0 0 0 0 3.585v-.001z"/><path fill="#C2D6ED" fill-rule="nonzero" d="M163.828 58.178h30.698v1.572h-30.698z"/><path fill="#C2D6ED" fill-rule="nonzero" d="M166.958 56.299l-2.666 2.665 2.666 2.664h-2.262l-2.665-2.664 2.665-2.665zM152.088 39.886a3.363 3.363 0 1 1 0 6.726 3.363 3.363 0 0 1 0-6.726zm0 5.154a1.791 1.791 0 1 0 0-3.58 1.791 1.791 0 0 0 0 3.579v.001z"/><path fill="#C2D6ED" fill-rule="nonzero" d="M151.302 45.825h1.572v8.067h-1.572z"/><path fill="#C2D6ED" fill-rule="nonzero" d="M149.423 50.762l2.665 2.666 2.664-2.666v2.262l-2.664 2.665-2.665-2.665zM233.525 15a3.362 3.362 0 1 1-.002 6.724 3.362 3.362 0 0 1 .002-6.724zm0 5.153a1.791 1.791 0 1 0-1.791-1.791 1.793 1.793 0 0 0 1.791 1.787v.004z"/><path fill="#C2D6ED" fill-rule="nonzero" d="M232.739 20.935h1.572v8.067h-1.572z"/><path fill="#C2D6ED" fill-rule="nonzero" d="M230.86 25.872l2.665 2.666 2.664-2.666v2.263l-2.664 2.664-2.665-2.664zM129.277 84.338a3.363 3.363 0 1 1 0 6.726 3.363 3.363 0 0 1 0-6.726zm0 5.154a1.791 1.791 0 1 0 0-3.582 1.791 1.791 0 0 0 0 3.582z"/><path fill="#C2D6ED" fill-rule="nonzero" d="M128.491 90.278h1.572v68.232h-1.572z"/><path fill="#C2D6ED" fill-rule="nonzero" d="M126.612 155.379l2.665 2.666 2.664-2.666v2.263l-2.664 2.664-2.665-2.664zM174.621 133.7a3.363 3.363 0 1 1 0 6.726 3.363 3.363 0 0 1 0-6.726zm0 5.154a1.791 1.791 0 1 0-1.791-1.791 1.793 1.793 0 0 0 1.791 1.786v.005z"/><path d="M158.5 113.024h5.546v23.248h8v1.572h-9.572V114.6H158.5c-10.026.011-18.151 8.136-18.162 18.162v25.748h-1.572v-25.753c.013-10.893 8.84-19.72 19.734-19.733z" fill="#C2D6ED" fill-rule="nonzero"/><path fill="#C2D6ED" fill-rule="nonzero" d="M142.216 155.379l-2.665 2.666-2.664-2.666v2.263l2.664 2.664 2.665-2.664zM449.7 30.483a3.363 3.363 0 1 1-6.726.002 3.363 3.363 0 0 1 6.726-.002zm-1.572 0a1.791 1.791 0 1 0-1.791 1.791c.99 0 1.793-.801 1.794-1.791h-.003zM439.539 42.186a3.363 3.363 0 1 1-6.726.002 3.363 3.363 0 0 1 6.726-.002zm-1.572 0a1.791 1.791 0 1 0-3.584 0 1.791 1.791 0 0 0 3.585 0h-.001zM403.206 30.483a3.363 3.363 0 1 1-6.726.002 3.363 3.363 0 0 1 6.726-.002zm-1.572 0a1.791 1.791 0 1 0-3.582 0 1.791 1.791 0 0 0 3.582 0zM450.14 76.98a3.363 3.363 0 1 1-6.726 0 3.363 3.363 0 0 1 6.726 0zm-1.572 0a1.791 1.791 0 1 0-3.582 0 1.791 1.791 0 0 0 3.582 0zM403.206 100.228a3.363 3.363 0 1 1-6.726.002 3.363 3.363 0 0 1 6.726-.002zm-1.572 0a1.791 1.791 0 1 0-3.582 0 1.791 1.791 0 0 0 3.582 0zM472.951 30.483a3.363 3.363 0 1 1-6.726.002 3.363 3.363 0 0 1 6.726-.002zm-1.572 0a1.791 1.791 0 1 0-3.582 0 1.791 1.791 0 0 0 3.582 0zM472.951 53.732a3.363 3.363 0 1 1-6.726 0 3.363 3.363 0 0 1 6.726 0zm-1.572 0a1.791 1.791 0 1 0-3.582 0 1.791 1.791 0 0 0 3.582 0z"/><path d="M480.6 16.319H375.809v14.95h21.457V29.7h-19.885V17.891h101.645v23.681h-23.363v39.795c-.014 9.977-8.098 18.061-18.075 18.075H402.42v1.572h35.167c10.846-.012 19.635-8.801 19.647-19.647V43.144H480.6V16.319z" fill="#C2D6ED" fill-rule="nonzero"/><path fill="#C2D6ED" fill-rule="nonzero" d="M444.2 76.194h-45.142v12.41h1.571V77.766H444.2zM413.707 87.818h22.47v1.572h-22.47z"/><path fill="#C2D6ED" fill-rule="nonzero" d="M416.837 85.939l-2.666 2.665 2.666 2.664h-2.262l-2.665-2.664 2.665-2.665zM468.802 56.308h1.572v18.875h-1.572z"/><path fill="#C2D6ED" fill-rule="nonzero" d="M472.253 72.053l-2.665 2.666-2.664-2.666v2.262l2.664 2.665 2.665-2.665zM448.917 29.697h18.095v1.572h-18.095zM436.963 29.633h-23.848V41.4H401.64v1.572h13.046V31.205h20.705v8.406h1.572z"/><path fill="#C2D6ED" fill-rule="nonzero" d="M404.77 44.851l-2.666-2.665 2.666-2.664h-2.262l-2.665 2.664 2.665 2.665zM381.038 64.726a3.363 3.363 0 1 1-6.726 0 3.363 3.363 0 0 1 6.726 0zm-1.572 0a1.791 1.791 0 1 0-3.584 0 1.791 1.791 0 0 0 3.585 0h-.001zM381.038 87.974a3.363 3.363 0 1 1-6.726.002 3.363 3.363 0 0 1 6.726-.002zm-1.572 0a1.791 1.791 0 1 0-3.584 0 1.791 1.791 0 0 0 3.585 0h-.001z"/><path fill="#C2D6ED" fill-rule="nonzero" d="M391.711 41.951h-14.888l.067 20.201 1.571-.005-.061-18.624h11.739v43.665h-9.887v1.572h11.459zM426.3 117.006a3.363 3.363 0 1 1-6.726.002 3.363 3.363 0 0 1 6.726-.002zm-1.572 0a1.791 1.791 0 1 0-1.791 1.791 1.793 1.793 0 0 0 1.796-1.791h-.005z"/><path fill="#C2D6ED" fill-rule="nonzero" d="M412.298 116.22h8.068v1.572h-8.068z"/><path fill="#C2D6ED" fill-rule="nonzero" d="M415.428 119.67l-2.666-2.664 2.666-2.665h-2.262l-2.665 2.665 2.665 2.664zM405.126 59.583a3.363 3.363 0 1 1-6.726.002 3.363 3.363 0 0 1 6.726-.002zm-1.572 0a1.791 1.791 0 1 0-3.582 0 1.791 1.791 0 0 0 3.582 0z"/><path fill="#C2D6ED" fill-rule="nonzero" d="M404.34 58.797h30.698v1.572H404.34z"/><path fill="#C2D6ED" fill-rule="nonzero" d="M431.907 56.919l2.666 2.664-2.666 2.665h2.262l2.665-2.665-2.665-2.664zM450.14 43.868a3.363 3.363 0 1 1-6.726 0 3.363 3.363 0 0 1 6.726 0zm-1.572 0a1.791 1.791 0 1 0-3.582 0 1.791 1.791 0 0 0 3.582 0z"/><path fill="#C2D6ED" fill-rule="nonzero" d="M445.991 46.444h1.572v8.067h-1.572z"/><path fill="#C2D6ED" fill-rule="nonzero" d="M449.442 51.381l-2.665 2.666-2.664-2.666v2.263l2.664 2.664 2.665-2.664zM365.7 17.978a3.363 3.363 0 1 1-6.726.002 3.363 3.363 0 0 1 6.726-.002zm-1.572 0a1.791 1.791 0 1 0-1.791 1.791c.99 0 1.793-.801 1.794-1.791h-.003z"/><path fill="#C2D6ED" fill-rule="nonzero" d="M361.554 20.555h1.572v8.067h-1.572z"/><path fill="#C2D6ED" fill-rule="nonzero" d="M365.005 25.492l-2.665 2.666-2.664-2.666v2.262l2.664 2.665 2.665-2.665zM472.951 88.321a3.363 3.363 0 1 1-6.726 0 3.363 3.363 0 0 1 6.726 0zm-1.572 0a1.791 1.791 0 1 0-3.582 0 1.791 1.791 0 0 0 3.582 0z"/><path fill="#C2D6ED" fill-rule="nonzero" d="M468.802 90.897h1.572v68.232h-1.572z"/><path fill="#C2D6ED" fill-rule="nonzero" d="M472.253 155.998l-2.665 2.666-2.664-2.666v2.263l2.664 2.665 2.665-2.665zM427.606 137.677a3.363 3.363 0 1 1-6.726 0 3.363 3.363 0 0 1 6.726 0zm-1.572 0a1.791 1.791 0 1 0-3.584 0 1.791 1.791 0 0 0 3.585 0h-.001z"/><path d="M440.366 113.643h-5.546v23.248h-8v1.572h9.572v-23.248h3.974c10.026.011 18.151 8.136 18.162 18.162v25.752h1.572v-25.752c-.012-10.894-8.84-19.722-19.734-19.734z" fill="#C2D6ED" fill-rule="nonzero"/><path fill="#C2D6ED" fill-rule="nonzero" d="M456.649 155.998l2.665 2.666 2.664-2.666v2.263l-2.664 2.665-2.665-2.665z"/><path d="M48.317 44.426l-23.389 7.016a18.7 18.7 0 0 0-11.914 12.052L7.757 80.683M48.317 161.991l-23.389 7.015a18.7 18.7 0 0 0-11.914 12.052l-5.257 17.189M48.317 279.556l-23.389 7.015a18.7 18.7 0 0 0-11.914 12.052l-5.257 17.189M48.317 397.121l-23.389 7.015a18.7 18.7 0 0 0-11.914 12.052l-5.257 17.189M48.317 514.686L24.928 521.7a18.7 18.7 0 0 0-11.914 12.052l-5.257 17.189" stroke="#6C689B" stroke-width="6" stroke-linecap="round" stroke-linejoin="round"/><path d="M77.1 141.645a3.006 3.006 0 1 1 2.926-3 2.97 2.97 0 0 1-2.926 3zm0-4.6a1.6 1.6 0 1 0 1.558 1.6 1.582 1.582 0 0 0-1.558-1.605v.005zM77.1 37.771a3.006 3.006 0 1 1 2.926-3 2.97 2.97 0 0 1-2.926 3zm0-4.6a1.6 1.6 0 1 0 1.558 1.6 1.582 1.582 0 0 0-1.558-1.605v.005zM77.1 265.169a3.006 3.006 0 1 1 2.926-3 2.97 2.97 0 0 1-2.926 3zm0-4.605a1.6 1.6 0 1 0 1.558 1.6 1.582 1.582 0 0 0-1.558-1.601v.001zM78.275 123.211a3.006 3.006 0 1 1 2.926-3.005 2.97 2.97 0 0 1-2.926 3.005zm0-4.605a1.6 1.6 0 1 0 1.559 1.6 1.581 1.581 0 0 0-1.559-1.6zM77.1 183.194a3.006 3.006 0 1 1 2.926-3 2.97 2.97 0 0 1-2.926 3zm0-4.605a1.6 1.6 0 1 0 1.558 1.6 1.582 1.582 0 0 0-1.558-1.6zM97.326 100.1a3.006 3.006 0 1 1 2.926-3.005 2.97 2.97 0 0 1-2.926 3.005zm0-4.605a1.6 1.6 0 1 0 1.559 1.6 1.581 1.581 0 0 0-1.559-1.605v.005zM77.363 54.766a3.006 3.006 0 1 1 2.926-3.005 2.97 2.97 0 0 1-2.926 3.005zm0-4.605a1.6 1.6 0 1 0 1.559 1.6 1.581 1.581 0 0 0-1.559-1.6z" fill="#6C689B" fill-rule="nonzero"/><path fill="#6C689B" fill-rule="nonzero" d="M74.854 139.342H64.772V34.064h10.084v1.404h-8.717v102.47h8.715zM76.413 140.942h1.368v36.944h-1.368zM89.309 304.416H64.772V189.637h11.641v-7.145h1.368v8.55H66.139v111.969h21.803v-40.145h-8.603v-1.404h9.97zM64.772 150.633h1.368v29.557h-1.368z"/><path fill="#6C689B" fill-rule="nonzero" d="M67.774 153.43l-2.319-2.382-2.318 2.382v-2.022l2.318-2.381 2.319 2.381zM77.04 361.814a3.006 3.006 0 1 1 2.926-3 2.969 2.969 0 0 1-2.926 3zm0-4.605a1.6 1.6 0 1 0 1.559 1.6 1.582 1.582 0 0 0-1.559-1.6zM77.04 320.265a3.006 3.006 0 1 1 2.926-3.005 2.97 2.97 0 0 1-2.926 3.005zm0-4.605a1.6 1.6 0 1 0 1.559 1.6 1.581 1.581 0 0 0-1.559-1.6z"/><path d="M77.724 356.507h-1.368v-7.146H66.5v-11.615a10.719 10.719 0 0 1 9.853-10.8v-7.384h1.368v8.766h-.684a9.306 9.306 0 0 0-9.169 9.417v10.21h9.853l.003 8.552zM88.855 182.531h-1.368v-61.623h-6.97v-1.404h8.338zM87.1 248.678a3.006 3.006 0 1 1 2.926-3 2.97 2.97 0 0 1-2.926 3zm0-4.6a1.6 1.6 0 1 0 1.558 1.6 1.582 1.582 0 0 0-1.558-1.605v.005z" fill="#6C689B" fill-rule="nonzero"/><path fill="#6C689B" fill-rule="nonzero" d="M97.682 307.998h-1.368v-61.622h-6.97v-1.405h8.338zM98.009 120.206h-1.368V107.99H76.413V77.338c-.076-6.314 4.974-11.497 11.287-11.587h10.314v29.037h-1.368V67.156H87.7c-5.547.081-9.982 4.636-9.915 10.183v29.248h20.229l-.005 13.619z"/><path fill="#6C689B" fill-rule="nonzero" d="M86.527 77.921h1.368v19.17h-1.368z"/><path fill="#6C689B" fill-rule="nonzero" d="M84.893 80.719l2.318-2.383 2.319 2.383v-2.022l-2.319-2.381-2.318 2.381zM76.413 272.316h1.368v20.194h-1.368z"/><path fill="#6C689B" fill-rule="nonzero" d="M79.415 289.713l-2.318 2.382-2.319-2.382v2.021l2.319 2.381 2.318-2.381zM68.047 386.558a3.006 3.006 0 1 1 2.926-3 2.97 2.97 0 0 1-2.926 3zm0-4.605a1.6 1.6 0 1 0 1.558 1.6 1.582 1.582 0 0 0-1.558-1.6z"/><path d="M70.289 384.256v-1.4c9.679-.143 17.416-8.091 17.3-17.77v-49.38h1.368v49.375c.126 10.444-8.224 19.02-18.668 19.175z" fill="#6C689B" fill-rule="nonzero"/><path fill="#6C689B" fill-rule="nonzero" d="M90.595 318.504l-2.319-2.383-2.318 2.383v-2.022l2.318-2.381 2.319 2.381zM77.1 248.93a3.138 3.138 0 1 1 2.926-3.13 3.037 3.037 0 0 1-2.926 3.13zm0-4.856a1.735 1.735 0 1 0 1.558 1.726 1.651 1.651 0 0 0-1.558-1.727v.001z"/><path fill="#6C689B" fill-rule="nonzero" d="M76.413 214.354h1.368v29.017h-1.368z"/><path fill="#6C689B" fill-rule="nonzero" d="M79.415 217.152l-2.318-2.383-2.319 2.383v-2.022l2.319-2.381 2.318 2.381zM96.642 140.552h1.368v89.713h-1.368z"/><path fill="#6C689B" fill-rule="nonzero" d="M99.644 227.468l-2.318 2.383-2.319-2.383v2.022l2.319 2.381 2.318-2.381zM99.644 143.35l-2.318-2.383-2.319 2.383v-2.022l2.319-2.381 2.318 2.381zM96.642 316.255h1.368v89.713h-1.368z"/><path fill="#6C689B" fill-rule="nonzero" d="M99.644 403.171l-2.318 2.383-2.319-2.383v2.022l2.319 2.381 2.318-2.381zM99.644 319.053l-2.318-2.383-2.319 2.383v-2.022l2.319-2.381 2.318 2.381zM77.451 206.272a3.006 3.006 0 1 1 2.926-3 2.97 2.97 0 0 1-2.926 3zm0-4.605a1.6 1.6 0 1 0 1.558 1.6 1.582 1.582 0 0 0-1.558-1.601v.001z"/><path fill="#6C689B" fill-rule="nonzero" d="M79.693 202.565h7.02v1.404h-7.02z"/><path fill="#6C689B" fill-rule="nonzero" d="M83.989 205.648l2.32-2.381-2.32-2.381h1.969l2.318 2.381-2.318 2.381zM88.88 37.771a3.006 3.006 0 1 1 2.926-3 2.969 2.969 0 0 1-2.926 3zm0-4.6a1.6 1.6 0 1 0 1.558 1.6 1.581 1.581 0 0 0-1.558-1.605v.005z"/><path fill="#6C689B" fill-rule="nonzero" d="M91.121 34.064h7.02v1.404h-7.02z"/><path fill="#6C689B" fill-rule="nonzero" d="M95.417 37.147l2.32-2.381-2.32-2.381h1.969l2.319 2.381-2.319 2.381zM78.971 463.439a3.006 3.006 0 1 1 2.926-3 2.969 2.969 0 0 1-2.926 3zm0-4.605a1.6 1.6 0 1 0 1.559 1.6 1.582 1.582 0 0 0-1.559-1.601v.001zM78.971 402.239a3.006 3.006 0 1 1 2.926-3.005 2.97 2.97 0 0 1-2.926 3.005zm0-4.605a1.6 1.6 0 1 0 1.559 1.6 1.581 1.581 0 0 0-1.559-1.6z"/><path fill="#6C689B" fill-rule="nonzero" d="M76.729 461.136h-9.03v-62.604h9.03v1.404h-7.662v59.796h7.662zM78.057 409.059h1.368v39.147h-1.368z"/><path fill="#6C689B" fill-rule="nonzero" d="M76.423 445.409l2.318 2.382 2.319-2.382v2.022l-2.319 2.381-2.318-2.381zM88.687 504.437a3.006 3.006 0 1 1 2.926-3 2.97 2.97 0 0 1-2.926 3zm0-4.605a1.6 1.6 0 1 0 1.558 1.6 1.582 1.582 0 0 0-1.558-1.601v.001z"/><path fill="#6C689B" fill-rule="nonzero" d="M97.682 512.332H67.774v-42.239h21.597v29.036h-1.368v-27.632H69.141v39.43h27.173v-93.701h1.368z"/><path fill="#6C689B" fill-rule="nonzero" d="M99.317 420.023l-2.319-2.382-2.318 2.382v-2.021l2.318-2.381 2.319 2.381zM77.888 482.262h1.368v19.169h-1.368z"/><path fill="#6C689B" fill-rule="nonzero" d="M76.254 485.06l2.318-2.383 2.319 2.383v-2.022l-2.319-2.381-2.318 2.381zM86.418 216.182h1.368v14.083h-1.368z"/><path fill="#6C689B" fill-rule="nonzero" d="M84.783 227.468l2.319 2.383 2.318-2.383v2.022l-2.318 2.381-2.319-2.381zM88.66 396.932h1.368v63.502H88.66zM79.605 51.059h16.157v1.404H79.605z"/><path fill="#6C689B" fill-rule="nonzero" d="M93.039 54.142l2.319-2.381-2.319-2.381h1.968l2.319 2.381-2.319 2.381z"/><path d="M303.851 525.633a3.025 3.025 0 1 1-6.05.004 3.025 3.025 0 0 1 6.05-.004zm-4.636 0a1.611 1.611 0 1 0 3.222.002 1.611 1.611 0 0 0-3.222-.002z" fill="#C2D6ED" fill-rule="nonzero"/><path fill="#C2D6ED" fill-rule="nonzero" d="M301.533 527.949v9.327h-53.667v-9.327h1.204v7.914h51.259v-7.914zM249.108 525.164h39.408v1.413h-39.408z"/><path fill="#C2D6ED" fill-rule="nonzero" d="M285.701 528.265l2.398-2.395-2.398-2.395h2.035l2.397 2.395-2.397 2.395zM345.122 515.6a3.025 3.025 0 1 1-6.05.006 3.025 3.025 0 0 1 6.05-.006zm-4.636 0a1.611 1.611 0 1 0 3.222.002 1.611 1.611 0 0 0-3.222-.002z"/><path fill="#C2D6ED" fill-rule="nonzero" d="M353.07 507.712v29.487h-42.521V514.89h29.23v1.413h-27.816v19.483h39.693v-28.068z"/><path fill="#C2D6ED" fill-rule="nonzero" d="M322.8 525.338h19.297v1.413H322.8z"/><path fill="#C2D6ED" fill-rule="nonzero" d="M325.616 528.44l-2.398-2.395 2.398-2.395h-2.035l-2.397 2.395 2.397 2.395zM249.109 515.212h51.718v1.413h-51.718zM247.864 525.163h1.394v12.035h-1.394zM295.608 27.7a3.066 3.066 0 1 1 3.066 3.023 3.048 3.048 0 0 1-3.066-3.023zm4.7 0a1.633 1.633 0 1 0-1.633 1.61 1.623 1.623 0 0 0 1.632-1.61h.001z"/><path fill="#C2D6ED" fill-rule="nonzero" d="M297.957 25.383v-9.327h54.399v9.327h-1.22v-7.915h-51.958v7.915zM311.151 26.755h39.945v1.413h-39.945z"/><path fill="#C2D6ED" fill-rule="nonzero" d="M314.006 25.067l-2.431 2.395 2.431 2.395h-2.063l-2.43-2.395 2.43-2.395zM253.775 37.735a3.066 3.066 0 1 1 3.066 3.022 3.048 3.048 0 0 1-3.066-3.022zm4.7 0a1.633 1.633 0 1 0-1.633 1.61 1.624 1.624 0 0 0 1.632-1.61h.001z"/><path fill="#C2D6ED" fill-rule="nonzero" d="M245.718 45.571V16.132h43.101v22.309H259.19v-1.413h28.195V17.545h-40.234v28.068z"/><path fill="#C2D6ED" fill-rule="nonzero" d="M256.841 26.58h19.56v1.413h-19.56z"/><path fill="#C2D6ED" fill-rule="nonzero" d="M273.546 24.892l2.431 2.395-2.431 2.395h2.063l2.43-2.395-2.43-2.395zM298.674 36.707h52.422v1.413h-52.422zM350.945 16.133h1.413v12.035h-1.413zM364.422 510.066a3.363 3.363 0 1 1 0-6.726 3.363 3.363 0 0 1 0 6.726zm0-5.154a1.791 1.791 0 1 0 0 3.582 1.791 1.791 0 0 0 0-3.582z"/><path fill="#C2D6ED" fill-rule="nonzero" d="M363.636 485.251h1.572v18.875h-1.572z"/><path fill="#C2D6ED" fill-rule="nonzero" d="M367.086 488.382l-2.664-2.666-2.665 2.666v-2.263l2.665-2.664 2.664 2.664zM235.531 509.056a3.363 3.363 0 1 1 0-6.726 3.363 3.363 0 0 1 0 6.726zm0-5.154a1.791 1.791 0 1 0 0 3.586 1.791 1.791 0 0 0 0-3.588v.002z"/><path fill="#C2D6ED" fill-rule="nonzero" d="M234.745 484.241h1.572v18.875h-1.572z"/><path fill="#C2D6ED" fill-rule="nonzero" d="M238.195 487.371l-2.665-2.666-2.664 2.666v-2.262l2.664-2.665 2.665 2.665zM233.525 67.448a3.363 3.363 0 1 1 0-6.726 3.363 3.363 0 0 1 0 6.726zm0-5.154a1.791 1.791 0 1 0 0 3.582 1.791 1.791 0 0 0 0-3.582z"/><path fill="#C2D6ED" fill-rule="nonzero" d="M232.739 42.633h1.572v18.875h-1.572z"/><path fill="#C2D6ED" fill-rule="nonzero" d="M236.189 45.764l-2.664-2.666-2.665 2.666v-2.263l2.665-2.664 2.664 2.664zM362.34 67.817a3.363 3.363 0 1 1 0-6.726 3.363 3.363 0 0 1 0 6.726zm0-5.154a1.791 1.791 0 1 0 0 3.58 1.791 1.791 0 0 0 0-3.579v-.001z"/><path fill="#C2D6ED" fill-rule="nonzero" d="M361.555 43.003h1.572v18.875h-1.572z"/><path fill="#C2D6ED" fill-rule="nonzero" d="M365.005 46.133l-2.665-2.666-2.664 2.666v-2.262l2.664-2.665 2.665 2.665z"/><path d="M490.048 12.046c0-4.81-4.606-8.709-10.288-8.709h-56.334l66.621 66.375.001-57.666z" stroke="url(#w)" stroke-width="3" fill="url(#x)" fill-rule="nonzero" stroke-linecap="round" stroke-linejoin="round"/><path stroke="url(#y)" stroke-width="3" fill="url(#z)" fill-rule="nonzero" stroke-linecap="round" stroke-linejoin="round" d="M108.028 3.337v70.385l70.646-70.385z"/><path stroke="url(#A)" stroke-width="3" fill="url(#B)" fill-rule="nonzero" stroke-linecap="round" stroke-linejoin="round" d="M108.028 547.817h66.875l-66.875-66.627z"/><path d="M479.76 547.817c5.682 0 10.288-3.9 10.288-8.709v-57.754l-66.71 66.463h56.422z" stroke="url(#C)" stroke-width="3" fill="url(#D)" fill-rule="nonzero" stroke-linecap="round" stroke-linejoin="round"/><g opacity=".4" transform="translate(143 119)" fill="#FFF" fill-rule="nonzero"><rect x=".683" y="133.33" width="307.47" height="9.319" rx="2.061"/><path d="M109.167 8.348H97.611V.643h31.47v7.705h-11.557v30.276h-8.357zM137.652.643h8.357v15.029h15.411V.643h8.354v37.981h-8.354V23.377h-15.411v15.247h-8.357zM181.06.643h28.6v7.434h-20.351v7.705h17.905v7.432h-17.905v7.977h20.619v7.434H181.06zM7.565 65.753h8.357v37.981H7.565zM27.588 65.753h7.705l17.8 23.385V65.753h8.248v37.981H54.23L35.836 79.59v24.145h-8.248zM81.465 73.459H69.91v-7.705h31.47v7.705H89.822v30.276h-8.357zM109.953 65.753h28.6v7.434H118.2v7.705h17.905v7.432H118.2V96.3h20.62v7.434h-28.867zM148.477 65.753h17.365c4.81 0 8.5 1.284 11.068 3.853a11.735 11.735 0 0 1 3.257 8.681v.108a11.911 11.911 0 0 1-2.252 7.515 13.046 13.046 0 0 1-5.888 4.259l9.279 13.565h-9.767L163.4 91.581h-6.566v12.154h-8.357V65.753zM165.3 84.2a6.942 6.942 0 0 0 4.747-1.466 4.956 4.956 0 0 0 1.656-3.906v-.11a4.843 4.843 0 0 0-1.738-4.069 7.672 7.672 0 0 0-4.829-1.356h-8.3V84.2h8.464zM189.876 65.753h7.705l17.8 23.385V65.753h8.248v37.981h-7.109L198.124 79.59v24.145h-8.248zM234.911 65.753h28.6v7.434H243.16v7.705h17.905v7.432H243.16V96.3h20.619v7.434h-28.868zM282.28 73.459h-11.556v-7.705h31.47v7.705h-11.557v30.276h-8.357zM16.22 172.469h34.868a52.864 52.864 0 0 1 19.224 3.385 45.391 45.391 0 0 1 15.071 9.388 41.809 41.809 0 0 1 9.772 14.115 44.419 44.419 0 0 1 3.449 17.561v.256a44.875 44.875 0 0 1-3.449 17.625 41.614 41.614 0 0 1-9.772 14.179 46.226 46.226 0 0 1-15.071 9.452 52 52 0 0 1-19.224 3.449H16.22v-89.41zm34.868 71.655a30.382 30.382 0 0 0 10.984-1.916 23.637 23.637 0 0 0 8.5-5.493 25.781 25.781 0 0 0 5.491-8.429 28.487 28.487 0 0 0 1.98-10.856v-.256a29.141 29.141 0 0 0-1.98-10.858 25.534 25.534 0 0 0-5.491-8.558 24.377 24.377 0 0 0-8.5-5.555 29.475 29.475 0 0 0-10.984-1.98h-15.2v53.9l15.2.001zM121.211 172.469h18.137l41.893 55.05v-55.05h19.413v89.408h-16.73l-43.3-56.838v56.838h-19.413zM259.155 263.155a59.228 59.228 0 0 1-20.054-3.513 53.058 53.058 0 0 1-17.881-10.794l11.622-13.923a58.335 58.335 0 0 0 12.58 7.919 33.622 33.622 0 0 0 14.115 2.939c4.087 0 7.259-.746 9.516-2.237a7.038 7.038 0 0 0 3.385-6.2v-.246a7.753 7.753 0 0 0-.7-3.385 7.13 7.13 0 0 0-2.689-2.747 28.388 28.388 0 0 0-5.506-2.554c-2.35-.85-5.402-1.744-9.158-2.683a111.19 111.19 0 0 1-12.3-3.7 34.545 34.545 0 0 1-9.348-5.045 20.38 20.38 0 0 1-5.954-7.471 25.947 25.947 0 0 1-2.113-11.112v-.256c-.06-3.806.72-7.578 2.283-11.048a25.132 25.132 0 0 1 6.407-8.493 28.772 28.772 0 0 1 9.851-5.493 39.55 39.55 0 0 1 12.622-1.916 53.462 53.462 0 0 1 18.073 2.939 52.415 52.415 0 0 1 15.137 8.429l-10.218 14.817a64.945 64.945 0 0 0-11.752-6.451 30.043 30.043 0 0 0-11.494-2.362c-3.833 0-6.707.745-8.622 2.234a6.8 6.8 0 0 0-2.875 5.557v.256a8.04 8.04 0 0 0 .832 3.767 7.516 7.516 0 0 0 3.009 2.875 28.321 28.321 0 0 0 5.954 2.426c2.52.766 5.7 1.66 9.542 2.683a92.241 92.241 0 0 1 12.1 4.023 33.945 33.945 0 0 1 8.964 5.365 20.46 20.46 0 0 1 5.506 7.345 24.934 24.934 0 0 1 1.859 10.09v.256a27.7 27.7 0 0 1-2.411 11.814 24.253 24.253 0 0 1-6.727 8.686 30.292 30.292 0 0 1-10.3 5.365 44.809 44.809 0 0 1-13.255 1.844z"/></g><rect stroke="#FFF" stroke-width="3" fill="#DBE5F4" fill-rule="nonzero" x="143.683" y="252.33" width="307.47" height="9.319" rx="2.061"/><path stroke="#FFF" stroke-width="3" fill="#DBE5F4" fill-rule="nonzero" d="M252.167 127.348h-11.556v-7.705h31.47v7.705h-11.557v30.276h-8.357zM280.652 119.643h8.357v15.029h15.411v-15.029h8.354v37.981h-8.354v-15.247h-15.411v15.247h-8.357zM324.06 119.643h28.6v7.434h-20.351v7.705h17.905v7.432h-17.905v7.977h20.619v7.434H324.06zM150.565 184.753h8.357v37.981h-8.357zM170.588 184.753h7.705l17.8 23.385v-23.385h8.248v37.981h-7.111l-18.394-24.144v24.145h-8.248zM224.465 192.459H212.91v-7.705h31.47v7.705h-11.558v30.276h-8.357zM252.953 184.753h28.6v7.434H261.2v7.705h17.905v7.432H261.2v7.976h20.62v7.434h-28.867zM291.477 184.753h17.365c4.81 0 8.5 1.284 11.068 3.853a11.735 11.735 0 0 1 3.257 8.681v.108a11.911 11.911 0 0 1-2.252 7.515 13.046 13.046 0 0 1-5.888 4.259l9.279 13.565h-9.767l-8.139-12.153h-6.566v12.154h-8.357v-37.982zM308.3 203.2a6.942 6.942 0 0 0 4.747-1.466 4.956 4.956 0 0 0 1.656-3.906v-.11a4.843 4.843 0 0 0-1.738-4.069 7.672 7.672 0 0 0-4.829-1.356h-8.3V203.2h8.464zM332.876 184.753h7.705l17.8 23.385v-23.385h8.248v37.981h-7.109l-18.396-24.144v24.145h-8.248zM377.911 184.753h28.6v7.434H386.16v7.705h17.905v7.432H386.16v7.976h20.619v7.434h-28.868zM425.28 192.459h-11.556v-7.705h31.47v7.705h-11.557v30.276h-8.357zM159.22 291.469h34.868a52.864 52.864 0 0 1 19.224 3.385 45.391 45.391 0 0 1 15.071 9.388 41.809 41.809 0 0 1 9.772 14.115 44.419 44.419 0 0 1 3.449 17.561v.256a44.875 44.875 0 0 1-3.449 17.625 41.614 41.614 0 0 1-9.772 14.179 46.226 46.226 0 0 1-15.071 9.452 52 52 0 0 1-19.224 3.449H159.22v-89.41zm34.868 71.655a30.382 30.382 0 0 0 10.984-1.916 23.637 23.637 0 0 0 8.5-5.493 25.781 25.781 0 0 0 5.491-8.429 28.487 28.487 0 0 0 1.98-10.856v-.256a29.141 29.141 0 0 0-1.98-10.858 25.534 25.534 0 0 0-5.491-8.558 24.377 24.377 0 0 0-8.5-5.555 29.475 29.475 0 0 0-10.984-1.98h-15.2v53.9l15.2.001zM264.211 291.469h18.137l41.893 55.05v-55.05h19.413v89.408h-16.73l-43.3-56.838v56.838h-19.413zM402.155 382.155a59.228 59.228 0 0 1-20.054-3.513 53.058 53.058 0 0 1-17.881-10.794l11.622-13.923a58.335 58.335 0 0 0 12.58 7.919 33.622 33.622 0 0 0 14.115 2.939c4.087 0 7.259-.746 9.516-2.237a7.038 7.038 0 0 0 3.385-6.2v-.246a7.753 7.753 0 0 0-.7-3.385 7.13 7.13 0 0 0-2.689-2.747 28.388 28.388 0 0 0-5.506-2.554c-2.35-.85-5.402-1.744-9.158-2.683a111.19 111.19 0 0 1-12.3-3.7 34.545 34.545 0 0 1-9.348-5.045 20.38 20.38 0 0 1-5.954-7.471 25.947 25.947 0 0 1-2.113-11.112v-.256c-.06-3.806.72-7.578 2.283-11.048a25.132 25.132 0 0 1 6.407-8.493 28.772 28.772 0 0 1 9.851-5.493 39.55 39.55 0 0 1 12.622-1.916 53.462 53.462 0 0 1 18.073 2.939 52.415 52.415 0 0 1 15.137 8.429l-10.218 14.817a64.945 64.945 0 0 0-11.752-6.451 30.043 30.043 0 0 0-11.494-2.362c-3.833 0-6.707.745-8.622 2.234a6.8 6.8 0 0 0-2.875 5.557v.256a8.04 8.04 0 0 0 .832 3.767 7.516 7.516 0 0 0 3.009 2.875 28.321 28.321 0 0 0 5.954 2.426c2.52.766 5.7 1.66 9.542 2.683a92.241 92.241 0 0 1 12.1 4.023 33.945 33.945 0 0 1 8.964 5.365 20.46 20.46 0 0 1 5.506 7.345 24.934 24.934 0 0 1 1.859 10.09v.256a27.7 27.7 0 0 1-2.411 11.814 24.253 24.253 0 0 1-6.727 8.686 30.292 30.292 0 0 1-10.3 5.365 44.809 44.809 0 0 1-13.255 1.844z"/></g></svg>
