<?xml version="1.0" encoding="UTF-8"?>
<svg width="2649px" height="395px" viewBox="0 0 2649 395" version="1.1" xmlns="http://www.w3.org/2000/svg" xmlns:xlink="http://www.w3.org/1999/xlink">
    <!-- Generator: Sketch 51.3 (57544) - http://www.bohemiancoding.com/sketch -->
    <title>easter-egg</title>
    <desc>Created with Sketch.</desc>
    <defs>
        <linearGradient x1="0%" y1="50%" x2="100%" y2="50%" id="linearGradient-1">
            <stop stop-color="#079AE0" offset="0%"></stop>
            <stop stop-color="#27439E" offset="65%"></stop>
            <stop stop-color="#2C3594" offset="83%"></stop>
            <stop stop-color="#2E3191" offset="100%"></stop>
        </linearGradient>
        <linearGradient x1="50%" y1="-166.666667%" x2="50%" y2="-66.9753086%" id="linearGradient-2">
            <stop stop-color="#F48120" offset="0%"></stop>
            <stop stop-color="#F0B636" offset="100%"></stop>
        </linearGradient>
        <linearGradient x1="50%" y1="-158.950617%" x2="50%" y2="-58.9506173%" id="linearGradient-3">
            <stop stop-color="#F48120" offset="0%"></stop>
            <stop stop-color="#F0B636" offset="100%"></stop>
        </linearGradient>
        <linearGradient x1="50%" y1="-86.377709%" x2="50%" y2="13.7770898%" id="linearGradient-4">
            <stop stop-color="#F48120" offset="0%"></stop>
            <stop stop-color="#F0B636" offset="100%"></stop>
        </linearGradient>
        <linearGradient x1="50%" y1="-79.4117647%" x2="50%" y2="20.7430341%" id="linearGradient-5">
            <stop stop-color="#F48120" offset="0%"></stop>
            <stop stop-color="#F0B636" offset="100%"></stop>
        </linearGradient>
        <linearGradient x1="50%" y1="100.041982%" x2="50%" y2="3.34092302e-12%" id="linearGradient-6">
            <stop stop-color="#F48120" offset="0%"></stop>
            <stop stop-color="#F0B636" offset="100%"></stop>
        </linearGradient>
        <linearGradient x1="206.521739%" y1="50%" x2="105.900621%" y2="50%" id="linearGradient-7">
            <stop stop-color="#F48120" offset="0%"></stop>
            <stop stop-color="#F0B636" offset="100%"></stop>
        </linearGradient>
        <linearGradient x1="1.7686631%" y1="38.0134452%" x2="99.7871884%" y2="58.919458%" id="linearGradient-8">
            <stop stop-color="#F48120" offset="0%"></stop>
            <stop stop-color="#F0B636" offset="100%"></stop>
        </linearGradient>
        <linearGradient x1="50%" y1="-113.055556%" x2="50%" y2="-12.7777778%" id="linearGradient-9">
            <stop stop-color="#F48120" offset="0%"></stop>
            <stop stop-color="#F0B636" offset="100%"></stop>
        </linearGradient>
        <linearGradient x1="50.1385042%" y1="-63.0193906%" x2="50.1385042%" y2="37.1191136%" id="linearGradient-10">
            <stop stop-color="#F48120" offset="0%"></stop>
            <stop stop-color="#F0B636" offset="100%"></stop>
        </linearGradient>
        <linearGradient x1="15.8905951%" y1="12.8626291%" x2="90.6374159%" y2="76.0521367%" id="linearGradient-11">
            <stop stop-color="#FF9A00" offset="0%"></stop>
            <stop stop-color="#E92257" offset="100%"></stop>
        </linearGradient>
        <radialGradient cx="53.7940584%" cy="63.5288697%" fx="53.7940584%" fy="63.5288697%" r="65.8132398%" gradientTransform="translate(0.537941,0.635289),scale(0.614032,1.000000),rotate(16.022026),translate(-0.537941,-0.635289)" id="radialGradient-12">
            <stop stop-color="#FFFFFF" offset="4%"></stop>
            <stop stop-color="#FFFFFF" offset="69%"></stop>
            <stop stop-color="#F5F7F8" offset="100%"></stop>
        </radialGradient>
        <linearGradient x1="0%" y1="50%" x2="100%" y2="50%" id="linearGradient-13">
            <stop stop-color="#2647A1" offset="0%"></stop>
            <stop stop-color="#293D99" offset="100%"></stop>
        </linearGradient>
        <linearGradient x1="50%" y1="0%" x2="50%" y2="109.32128%" id="linearGradient-14">
            <stop stop-color="#222066" stop-opacity="0.250566123" offset="0%"></stop>
            <stop stop-color="#0F0E36" offset="100%"></stop>
        </linearGradient>
        <linearGradient x1="13.1164353%" y1="27.4122614%" x2="86.5959844%" y2="72.6838216%" id="linearGradient-15">
            <stop stop-color="#F48120" offset="0%"></stop>
            <stop stop-color="#F0B636" offset="100%"></stop>
        </linearGradient>
        <linearGradient x1="14.5743245%" y1="23.1647256%" x2="111.313587%" y2="85.3864419%" id="linearGradient-16">
            <stop stop-color="#F06876" offset="0%"></stop>
            <stop stop-color="#F6925A" offset="100%"></stop>
        </linearGradient>
        <linearGradient x1="-2.97675199%" y1="80.7033439%" x2="102.678534%" y2="19.5362736%" id="linearGradient-17">
            <stop stop-color="#F16137" stop-opacity="0.3" offset="0%"></stop>
            <stop stop-color="#F48723" offset="29%"></stop>
            <stop stop-color="#F0B636" offset="100%"></stop>
        </linearGradient>
        <linearGradient x1="-13291.8395%" y1="-13861.885%" x2="-13225.2667%" y2="-14002.662%" id="linearGradient-18">
            <stop stop-color="#F16137" stop-opacity="0.3" offset="0%"></stop>
            <stop stop-color="#F48723" offset="29%"></stop>
            <stop stop-color="#F0B636" offset="100%"></stop>
        </linearGradient>
    </defs>
    <g id="Page-1" stroke="none" stroke-width="1" fill="none" fill-rule="evenodd">
        <g id="Group">
            <path d="M15,30 L2636,30 C2642.62742,30 2648,35.372583 2648,42 L2648,374 C2648,380.627417 2642.62742,386 2636,386 L15,386 C8.372583,386 3,380.627417 3,374 L3,42 C3,35.372583 8.372583,30 15,30 Z" id="Rectangle-path" fill="url(#linearGradient-1)" fill-rule="nonzero"></path>
            <circle id="Oval" fill="#FFFFFF" fill-rule="nonzero" cx="647.5" cy="195.5" r="7.5"></circle>
            <circle id="Oval" fill="url(#linearGradient-2)" fill-rule="nonzero" transform="translate(450.000000, 240.000000) rotate(-67.520000) translate(-450.000000, -240.000000) " cx="450" cy="240" r="6"></circle>
            <circle id="Oval" fill="#FFFFFF" fill-rule="nonzero" cx="359.5" cy="132.5" r="3.5"></circle>
            <circle id="Oval" fill="#FFFFFF" fill-rule="nonzero" cx="869.5" cy="177.5" r="3.5"></circle>
            <circle id="Oval" fill="url(#linearGradient-3)" fill-rule="nonzero" transform="translate(973.000000, 135.000000) rotate(-67.520000) translate(-973.000000, -135.000000) " cx="973" cy="135" r="6"></circle>
            <circle id="Oval" fill="url(#linearGradient-4)" fill-rule="nonzero" transform="translate(186.000000, 249.000000) rotate(-67.520000) translate(-186.000000, -249.000000) " cx="186" cy="249" r="12"></circle>
            <circle id="Oval" fill="url(#linearGradient-5)" fill-rule="nonzero" transform="translate(128.000000, 95.000000) rotate(-67.520000) translate(-128.000000, -95.000000) " cx="128" cy="95" r="12"></circle>
            <circle id="Oval" fill="url(#linearGradient-6)" fill-rule="nonzero" cx="325" cy="310" r="44"></circle>
            <circle id="Oval" fill="#FFFFFF" fill-rule="nonzero" cx="1236.5" cy="169.5" r="7.5"></circle>
            <circle id="Oval" fill="#FFFFFF" fill-rule="nonzero" cx="1128.5" cy="238.5" r="3.5"></circle>
            <circle id="Oval" fill="#FFFFFF" fill-rule="nonzero" cx="1318.5" cy="339.5" r="3.5"></circle>
            <circle id="Oval" fill="#FFFFFF" fill-rule="nonzero" cx="1371.5" cy="153.5" r="3.5"></circle>
            <circle id="Oval" fill="url(#linearGradient-7)" fill-rule="nonzero" transform="translate(1535.000000, 119.000000) rotate(-66.830000) translate(-1535.000000, -119.000000) " cx="1535" cy="119" r="6"></circle>
            <circle id="Oval" fill="#FFFFFF" fill-rule="nonzero" cx="1515.5" cy="141.5" r="3.5"></circle>
            <circle id="Oval" fill="url(#linearGradient-8)" fill-rule="nonzero" cx="2276.5" cy="157.5" r="8.5"></circle>
            <circle id="Oval" fill="#FFFFFF" fill-rule="nonzero" cx="2055.5" cy="311.5" r="8.5"></circle>
            <circle id="Oval" fill="#FFFFFF" fill-rule="nonzero" cx="2489" cy="257" r="4"></circle>
            <circle id="Oval" fill="#FFFFFF" fill-rule="nonzero" cx="747" cy="119" r="4"></circle>
            <circle id="Oval" fill="#FFFFFF" fill-rule="nonzero" cx="2394.5" cy="309.5" r="7.5"></circle>
            <circle id="Oval" fill="#FFFFFF" fill-rule="nonzero" cx="2182" cy="117" r="4"></circle>
            <circle id="Oval" fill="#FFFFFF" fill-rule="nonzero" cx="1361" cy="112" r="4"></circle>
            <circle id="Oval" fill="#FFFFFF" fill-rule="nonzero" cx="885" cy="219" r="4"></circle>
            <circle id="Oval" fill="#FFFFFF" fill-rule="nonzero" cx="2331" cy="272" r="4"></circle>
            <circle id="Oval" fill="#FFFFFF" fill-rule="nonzero" cx="1666" cy="196" r="4"></circle>
            <circle id="Oval" fill="url(#linearGradient-9)" fill-rule="nonzero" transform="translate(2425.500000, 380.500000) rotate(-55.470000) translate(-2425.500000, -380.500000) " cx="2425.5" cy="380.5" r="6.5"></circle>
            <circle id="Oval" fill="url(#linearGradient-10)" fill-rule="nonzero" transform="translate(1642.500000, 216.500000) rotate(-55.470000) translate(-1642.500000, -216.500000) " cx="1642.5" cy="216.5" r="13.5"></circle>
            <circle id="Oval" fill="#FFFFFF" fill-rule="nonzero" cx="908.5" cy="264.5" r="14.5"></circle>
            <path d="M143.076026,311.941176 C67.4058562,311.941176 11.2042254,253.239844 11.2042254,179.032499 L11.2042254,178.294118 C11.2042254,104.825154 66.3038634,44.6470588 145.280011,44.6470588 C193.767693,44.6470588 222.786836,60.8914527 246.663345,84.519662 L210.664915,126.238219 C190.829045,108.147871 170.625845,97.0721482 144.91268,97.0721482 C101.567632,97.0721482 70.3445036,133.252844 70.3445036,177.555736 L70.3445036,178.294118 C70.3445036,222.59701 100.83297,259.516087 144.91268,259.516087 C174.299154,259.516087 192.298369,247.701982 212.50157,229.242444 L248.5,265.79233 C222.052174,294.220019 192.6657,311.941176 143.076026,311.941176 Z M374.192606,315.653595 C312.644014,315.653595 267.038732,269.827184 267.038732,212.451027 L267.038732,211.705882 C267.038732,154.329726 313.014789,107.75817 374.934155,107.75817 C436.482746,107.75817 482.088028,153.584581 482.088028,210.960737 L482.088028,211.705882 C482.088028,269.082039 436.111972,315.653595 374.192606,315.653595 Z M374.934155,263.679739 C407.191549,263.679739 426.471831,239.310722 426.471831,210.577107 L426.471831,209.849673 C426.471831,181.116057 405.337676,156.019608 374.192606,156.019608 C341.935211,156.019608 322.65493,180.388624 322.65493,209.12224 L322.65493,209.849673 C322.65493,238.583289 343.789085,263.679739 374.934155,263.679739 Z M511.75,308.228758 L511.75,111.429792 L568.24554,111.429792 L568.24554,139.334123 C581.254382,122.811822 598.351717,107.75817 626.971168,107.75817 C652.988851,107.75817 672.687954,119.1402 683.095027,138.966961 C700.564043,118.773037 721.37819,107.75817 748.510916,107.75817 C790.510891,107.75817 815.785211,132.725203 815.785211,180.089133 L815.785211,308.228758 L759.289671,308.228758 L759.289671,198.447246 C759.289671,172.011564 747.395873,158.42656 726.210045,158.42656 C705.024217,158.42656 692.015376,172.011564 692.015376,198.447246 L692.015376,308.228758 L635.519835,308.228758 L635.519835,198.447246 C635.519835,172.011564 623.626037,158.42656 602.44021,158.42656 C581.254382,158.42656 568.24554,172.011564 568.24554,198.447246 L568.24554,308.228758 L511.75,308.228758 Z M856.570423,308.228758 L856.570423,111.470588 L912.18662,111.470588 L912.18662,308.228758 L856.570423,308.228758 Z M956.679577,308.228758 L956.679577,111.429792 L1012.92254,111.429792 L1012.92254,139.334123 C1025.87323,122.811822 1042.5241,107.75817 1071.0156,107.75817 C1113.56785,107.75817 1138.35915,135.662501 1138.35915,180.823458 L1138.35915,308.228758 L1082.11619,308.228758 L1082.11619,198.447246 C1082.11619,172.011564 1069.53553,158.42656 1048.0744,158.42656 C1026.61326,158.42656 1012.92254,172.011564 1012.92254,198.447246 L1012.92254,308.228758 L956.679577,308.228758 Z M1265.38405,367.627451 C1233.29854,367.627451 1203.05703,360.286511 1177.9787,347.072819 L1197.15624,305.22946 C1217.44018,316.607917 1237.72413,323.214763 1263.90885,323.214763 C1302.26394,323.214763 1320.33509,304.862413 1320.33509,269.6259 L1320.33509,260.082678 C1303.73914,279.903216 1285.66799,292.015768 1255.79527,292.015768 C1209.69541,292.015768 1168.02113,258.61449 1168.02113,200.254016 L1168.02113,199.519922 C1168.02113,140.792401 1210.433,107.75817 1255.79527,107.75817 C1286.40559,107.75817 1304.47673,120.604815 1319.59749,137.121931 L1319.59749,111.42864 L1375.65493,111.42864 L1375.65493,263.753148 C1375.65493,298.989661 1367.17255,324.682951 1350.5766,341.200066 C1332.13665,359.552417 1303.73914,367.627451 1265.38405,367.627451 Z M1271.65335,248.830065 C1298.98555,248.830065 1320.03873,229.896732 1320.03873,202.796078 L1320.03873,202.053595 C1320.03873,174.952941 1298.98555,156.019608 1271.65335,156.019608 C1244.32115,156.019608 1223.63732,174.952941 1223.63732,202.053595 L1223.63732,202.796078 C1223.63732,230.267974 1244.32115,248.830065 1271.65335,248.830065 Z M1584.26894,311.941176 C1556.14121,311.941176 1524.63815,302.727142 1498.01056,282.087704 L1522.38793,245.231566 C1544.14004,260.711144 1567.01727,268.819495 1585.76909,268.819495 C1602.27069,268.819495 1609.77142,262.922512 1609.77142,254.077039 L1609.77142,253.339916 C1609.77142,241.177391 1590.26952,237.123216 1568.14237,230.489111 C1540.01464,222.38076 1508.13655,209.481112 1508.13655,171.150728 L1508.13655,170.413605 C1508.13655,130.240414 1541.13975,107.75817 1581.64369,107.75817 C1607.14616,107.75817 1634.89886,116.235082 1656.65097,130.608976 L1634.89886,169.307921 C1615.02193,157.882518 1595.145,150.879852 1580.51858,150.879852 C1566.64223,150.879852 1559.51654,156.776834 1559.51654,164.516623 L1559.51654,165.253746 C1559.51654,176.310587 1578.64339,181.470447 1600.39551,188.841674 C1628.52324,198.055709 1661.15141,211.323919 1661.15141,247.442934 L1661.15141,248.180057 C1661.15141,292.038862 1627.77317,311.941176 1584.26894,311.941176 Z M1786.84401,315.653595 C1725.29542,315.653595 1679.69014,269.827184 1679.69014,212.451027 L1679.69014,211.705882 C1679.69014,154.329726 1725.6662,107.75817 1787.58556,107.75817 C1849.13415,107.75817 1894.73944,153.584581 1894.73944,210.960737 L1894.73944,211.705882 C1894.73944,269.082039 1848.76338,315.653595 1786.84401,315.653595 Z M1787.58556,263.679739 C1819.84296,263.679739 1839.12324,239.310722 1839.12324,210.577107 L1839.12324,209.849673 C1839.12324,181.116057 1817.98908,156.019608 1786.84401,156.019608 C1754.58662,156.019608 1735.30634,180.388624 1735.30634,209.12224 L1735.30634,209.849673 C1735.30634,238.583289 1756.44049,263.679739 1787.58556,263.679739 Z M2024.13979,315.653595 C1962.5912,315.653595 1916.98592,269.827184 1916.98592,212.451027 L1916.98592,211.705882 C1916.98592,154.329726 1962.96197,107.75817 2024.88134,107.75817 C2086.42993,107.75817 2132.03521,153.584581 2132.03521,210.960737 L2132.03521,211.705882 C2132.03521,269.082039 2086.05915,315.653595 2024.13979,315.653595 Z M2024.88134,263.679739 C2057.13873,263.679739 2076.41901,239.310722 2076.41901,210.577107 L2076.41901,209.849673 C2076.41901,181.116057 2055.28486,156.019608 2024.13979,156.019608 C1991.88239,156.019608 1972.60211,180.388624 1972.60211,209.12224 L1972.60211,209.849673 C1972.60211,238.583289 1993.73627,263.679739 2024.88134,263.679739 Z M2161.69718,308.228758 L2161.69718,111.429792 L2217.94015,111.429792 L2217.94015,139.334123 C2230.89083,122.811822 2247.54171,107.75817 2276.03321,107.75817 C2318.58545,107.75817 2343.37676,135.662501 2343.37676,180.823458 L2343.37676,308.228758 L2287.1338,308.228758 L2287.1338,198.447246 C2287.1338,172.011564 2274.55313,158.42656 2253.092,158.42656 C2231.63087,158.42656 2217.94015,172.011564 2217.94015,198.447246 L2217.94015,308.228758 L2161.69718,308.228758 Z M2380.45423,311.941176 L2380.45423,252.542484 L2439.77817,252.542484 L2439.77817,311.941176 L2380.45423,311.941176 Z M2476.85563,311.941176 L2476.85563,252.542484 L2536.17958,252.542484 L2536.17958,311.941176 L2476.85563,311.941176 Z M1.13686838e-13,25 L2649,25 L2649,389 L1.13686838e-13,389 L1.13686838e-13,25 Z M2569.5493,311.941176 L2628.87324,311.941176 L2628.87324,252.542484 L2569.5493,252.542484 L2569.5493,311.941176 Z" id="Combined-Shape" fill="#0F0E36"></path>
            <path d="M2023.5,282 C2062.43607,282 2094,250.436075 2094,211.5 C2094,172.563925 2062.43607,141 2023.5,141 C2012.88229,141 2002.81279,143.347193 1993.78208,147.551004 C1985.82761,151.253823 1933.25331,144.514299 1882.78423,136.21376 C1856.87031,131.951753 1830.72049,127.805482 1809.84773,125.518695 C1785.97112,122.902811 1782.64402,131.35311 1780.82994,136.21376 C1780.10708,138.150591 1657.68383,109.167676 1652.12612,111.020694 C1647.98382,112.401796 1745.07164,140.673826 1811.14069,159.299725 C1824.39504,163.036334 1835.83393,168.365852 1845.28386,174.06379 C1852.26748,178.274636 1619.78259,118.479334 1824.25688,184.884852 C1840.57288,190.183673 1872.81009,202.636736 1876.93264,203.850538 C1909.70598,213.5 1957.3674,239.446585 1964.85707,250.644652 C1977.50217,269.55078 1999.04725,282 2023.5,282 Z" id="Oval-2" fill="url(#linearGradient-11)"></path>
            <path d="M1977.26639,242.865177 C1974.95784,240.267755 1972.56876,237.360798 1970.07843,234.102041 C1957.34721,217.442434 1915.2165,207.48188 1908.92855,204.891882 C1905.95889,203.559373 1903.11622,201.959344 1900.43558,200.111511 C1898.64981,198.7189 1895.78345,194.685767 1899.18042,193.655568 C1910.22104,191.03714 1917.94556,204.037539 1924.0985,193.470901 C1925.43834,189.879307 1933.71982,196.001074 1936.95285,194.369765 C1943.04908,191.346628 1922.22434,187.030638 1924.81786,181.079679 C1926.96097,176.099622 1970.97177,194.304152 1970.07843,189.406588 C1969.92828,188.772172 1969.9748,188.10691 1970.21178,187.499565 C1970.5001,186.988472 1970.91515,186.56053 1971.41678,186.257124 C1972.62467,185.50247 1974.48669,184.715464 1975.67549,183.684836 C1976.0378,183.067819 1976.4116,182.458356 1976.79658,181.85674 C1976.86646,181.160575 1976.5689,180.369088 1975.71773,179.452645 C1973.17048,176.326295 1955.40308,170.366711 1952.7249,167.850334 C1951.22784,166.536876 1950.7724,163.792658 1953.31108,163.675357 C1965.79803,163.516649 1983.98841,166.79344 1995.61968,163.302364 L1998.26535,162.25032 C2005.9707,158.256372 2014.72185,156 2024,156 C2054.92795,156 2080,181.072054 2080,212 C2080,242.927946 2054.92795,268 2024,268 C2004.47822,268 1987.28952,258.010894 1977.2664,242.865181 L1977.26639,242.865177 Z" id="Combined-Shape" fill="url(#radialGradient-12)" fill-rule="nonzero"></path>
            <path d="M1786.84401,315.653595 C1725.29542,315.653595 1679.69014,269.827184 1679.69014,212.451027 L1679.69014,211.705882 C1679.69014,154.329726 1725.6662,107.75817 1787.58556,107.75817 C1849.13415,107.75817 1894.73944,153.584581 1894.73944,210.960737 L1894.73944,211.705882 C1894.73944,269.082039 1848.76338,315.653595 1786.84401,315.653595 Z M1787.58556,263.679739 C1819.84296,263.679739 1839.12324,239.310722 1839.12324,210.577107 L1839.12324,209.849673 C1839.12324,181.116057 1817.98908,156.019608 1786.84401,156.019608 C1754.58662,156.019608 1735.30634,180.388624 1735.30634,209.12224 L1735.30634,209.849673 C1735.30634,238.583289 1756.44049,263.679739 1787.58556,263.679739 Z" id="Combined-Shape" fill="url(#linearGradient-13)"></path>
            <path d="M143.076026,311.941176 C67.4058562,311.941176 11.2042254,253.239844 11.2042254,179.032499 L11.2042254,178.294118 C11.2042254,104.825154 66.3038634,44.6470588 145.280011,44.6470588 C193.767693,44.6470588 222.786836,60.8914527 246.663345,84.519662 L210.664915,126.238219 C190.829045,108.147871 170.625845,97.0721482 144.91268,97.0721482 C101.567632,97.0721482 70.3445036,133.252844 70.3445036,177.555736 L70.3445036,178.294118 C70.3445036,222.59701 100.83297,259.516087 144.91268,259.516087 C174.299154,259.516087 192.298369,247.701982 212.50157,229.242444 L248.5,265.79233 C222.052174,294.220019 192.6657,311.941176 143.076026,311.941176 Z M374.192606,315.653595 C312.644014,315.653595 267.038732,269.827184 267.038732,212.451027 L267.038732,211.705882 C267.038732,154.329726 313.014789,107.75817 374.934155,107.75817 C436.482746,107.75817 482.088028,153.584581 482.088028,210.960737 L482.088028,211.705882 C482.088028,269.082039 436.111972,315.653595 374.192606,315.653595 Z M374.934155,263.679739 C407.191549,263.679739 426.471831,239.310722 426.471831,210.577107 L426.471831,209.849673 C426.471831,181.116057 405.337676,156.019608 374.192606,156.019608 C341.935211,156.019608 322.65493,180.388624 322.65493,209.12224 L322.65493,209.849673 C322.65493,238.583289 343.789085,263.679739 374.934155,263.679739 Z M511.75,308.228758 L511.75,111.429792 L568.24554,111.429792 L568.24554,139.334123 C581.254382,122.811822 598.351717,107.75817 626.971168,107.75817 C652.988851,107.75817 672.687954,119.1402 683.095027,138.966961 C700.564043,118.773037 721.37819,107.75817 748.510916,107.75817 C790.510891,107.75817 815.785211,132.725203 815.785211,180.089133 L815.785211,308.228758 L759.289671,308.228758 L759.289671,198.447246 C759.289671,172.011564 747.395873,158.42656 726.210045,158.42656 C705.024217,158.42656 692.015376,172.011564 692.015376,198.447246 L692.015376,308.228758 L635.519835,308.228758 L635.519835,198.447246 C635.519835,172.011564 623.626037,158.42656 602.44021,158.42656 C581.254382,158.42656 568.24554,172.011564 568.24554,198.447246 L568.24554,308.228758 L511.75,308.228758 Z M856.570423,308.228758 L856.570423,111.470588 L912.18662,111.470588 L912.18662,308.228758 L856.570423,308.228758 Z M956.679577,308.228758 L956.679577,111.429792 L1012.92254,111.429792 L1012.92254,139.334123 C1025.87323,122.811822 1042.5241,107.75817 1071.0156,107.75817 C1113.56785,107.75817 1138.35915,135.662501 1138.35915,180.823458 L1138.35915,308.228758 L1082.11619,308.228758 L1082.11619,198.447246 C1082.11619,172.011564 1069.53553,158.42656 1048.0744,158.42656 C1026.61326,158.42656 1012.92254,172.011564 1012.92254,198.447246 L1012.92254,308.228758 L956.679577,308.228758 Z M1265.38405,367.627451 C1233.29854,367.627451 1203.05703,360.286511 1177.9787,347.072819 L1197.15624,305.22946 C1217.44018,316.607917 1237.72413,323.214763 1263.90885,323.214763 C1302.26394,323.214763 1320.33509,304.862413 1320.33509,269.6259 L1320.33509,260.082678 C1303.73914,279.903216 1285.66799,292.015768 1255.79527,292.015768 C1209.69541,292.015768 1168.02113,258.61449 1168.02113,200.254016 L1168.02113,199.519922 C1168.02113,140.792401 1210.433,107.75817 1255.79527,107.75817 C1286.40559,107.75817 1304.47673,120.604815 1319.59749,137.121931 L1319.59749,111.42864 L1375.65493,111.42864 L1375.65493,263.753148 C1375.65493,298.989661 1367.17255,324.682951 1350.5766,341.200066 C1332.13665,359.552417 1303.73914,367.627451 1265.38405,367.627451 Z M1271.65335,248.830065 C1298.98555,248.830065 1320.03873,229.896732 1320.03873,202.796078 L1320.03873,202.053595 C1320.03873,174.952941 1298.98555,156.019608 1271.65335,156.019608 C1244.32115,156.019608 1223.63732,174.952941 1223.63732,202.053595 L1223.63732,202.796078 C1223.63732,230.267974 1244.32115,248.830065 1271.65335,248.830065 Z M1584.26894,311.941176 C1556.14121,311.941176 1524.63815,302.727142 1498.01056,282.087704 L1522.38793,245.231566 C1544.14004,260.711144 1567.01727,268.819495 1585.76909,268.819495 C1602.27069,268.819495 1609.77142,262.922512 1609.77142,254.077039 L1609.77142,253.339916 C1609.77142,241.177391 1590.26952,237.123216 1568.14237,230.489111 C1540.01464,222.38076 1508.13655,209.481112 1508.13655,171.150728 L1508.13655,170.413605 C1508.13655,130.240414 1541.13975,107.75817 1581.64369,107.75817 C1607.14616,107.75817 1634.89886,116.235082 1656.65097,130.608976 L1634.89886,169.307921 C1615.02193,157.882518 1595.145,150.879852 1580.51858,150.879852 C1566.64223,150.879852 1559.51654,156.776834 1559.51654,164.516623 L1559.51654,165.253746 C1559.51654,176.310587 1578.64339,181.470447 1600.39551,188.841674 C1628.52324,198.055709 1661.15141,211.323919 1661.15141,247.442934 L1661.15141,248.180057 C1661.15141,292.038862 1627.77317,311.941176 1584.26894,311.941176 Z M1786.84401,315.653595 C1725.29542,315.653595 1679.69014,269.827184 1679.69014,212.451027 L1679.69014,211.705882 C1679.69014,154.329726 1725.6662,107.75817 1787.58556,107.75817 C1849.13415,107.75817 1894.73944,153.584581 1894.73944,210.960737 L1894.73944,211.705882 C1894.73944,269.082039 1848.76338,315.653595 1786.84401,315.653595 Z M1787.58556,263.679739 C1819.84296,263.679739 1839.12324,239.310722 1839.12324,210.577107 L1839.12324,209.849673 C1839.12324,181.116057 1817.98908,156.019608 1786.84401,156.019608 C1754.58662,156.019608 1735.30634,180.388624 1735.30634,209.12224 L1735.30634,209.849673 C1735.30634,238.583289 1756.44049,263.679739 1787.58556,263.679739 Z M2161.69718,308.228758 L2161.69718,111.429792 L2217.94015,111.429792 L2217.94015,139.334123 C2230.89083,122.811822 2247.54171,107.75817 2276.03321,107.75817 C2318.58545,107.75817 2343.37676,135.662501 2343.37676,180.823458 L2343.37676,308.228758 L2287.1338,308.228758 L2287.1338,198.447246 C2287.1338,172.011564 2274.55313,158.42656 2253.092,158.42656 C2231.63087,158.42656 2217.94015,172.011564 2217.94015,198.447246 L2217.94015,308.228758 L2161.69718,308.228758 Z M2380.45423,311.941176 L2380.45423,252.542484 L2439.77817,252.542484 L2439.77817,311.941176 L2380.45423,311.941176 Z M2476.85563,311.941176 L2476.85563,252.542484 L2536.17958,252.542484 L2536.17958,311.941176 L2476.85563,311.941176 Z M2569.5493,311.941176 L2569.5493,252.542484 L2628.87324,252.542484 L2628.87324,311.941176 L2569.5493,311.941176 Z" id="Combined-Shape" fill="url(#linearGradient-14)" opacity="0.453738839"></path>
            <g id="saturn" transform="translate(809.000000, 0.000000)" fill-rule="nonzero">
                <path d="M108.412329,21 C80.0227009,32.3928129 53.8305496,48.6057063 31,68.9180887 C32.4116571,70.8319105 33.6494263,72.8672593 34.6986301,75 C35.8821918,71.5351536 43.7972603,64.3843003 55.3,56.2382253 C59.8123288,53.0313993 64.9164384,49.640273 70.3534247,46.2860068 C89.5863014,34.3802048 106.932877,26.6027304 112,27.2662116 C110.104303,25.6609454 108.834526,23.4431585 108.412329,21 Z" id="Shape" fill="#F16137"></path>
                <path d="M117.3797,44.346391 C117.397205,44.052692 117.397205,43.7581978 117.3797,43.4644988 L117.3797,42.7295887 C117.3797,41.7742055 116.978921,40.8188223 116.760314,39.8634391 C116.232016,37.665116 115.525231,35.5143694 114.647115,33.4329753 C113.715083,31.2215928 112.618938,29.0842867 111.368013,27.039257 C106.376492,26.3778378 89.2887275,34.1311399 70.3428055,45.9999389 C64.9869391,49.34378 59.9589829,52.6876212 55.5139781,55.9212259 C54.6041271,71.7917581 62.0350517,86.9758673 75.079286,95.9003381 C67.4286849,96.2220752 59.8248193,94.5516478 53,91.0499311 C66.9378734,98.1416568 83.5305977,97.407216 96.7988513,89.1112705 C110.067105,80.8153249 118.098586,66.153537 117.999086,50.4093998 C117.935479,48.3761383 117.728495,46.3500187 117.3797,44.346391 Z" id="Shape" fill="url(#linearGradient-15)"></path>
                <path d="M56.2662942,65.9454851 C55.7244352,62.659462 55.5495715,59.3241086 55.744879,56 C44.1620112,64.170826 36.1918063,71.3434064 35,74.8187803 C35.1499938,75.0321834 35.2868063,75.2544241 35.4096834,75.4842775 L35.4096834,75.7061098 L35.8566108,76.371607 L35.8566108,76.5564673 L36.3407821,77.2219644 L36.3407821,77.4068248 L36.8621974,78.0723219 L37.4208566,78.7747911 C37.867784,79.3293721 38.3519553,79.883953 38.8361266,80.4015619 C40.3275566,82.0979352 41.9460756,83.6799203 43.6778399,85.133986 L45.9497207,86.9456171 C48.0569186,88.5195401 50.3003078,89.9052366 52.6536313,91.0864883 C59.5599864,94.5820081 67.2535038,96.262226 75,95.9668006 C64.9332945,88.8764601 58.1778769,78.0507044 56.2662942,65.9454851 Z" id="Shape" fill="url(#linearGradient-16)"></path>
                <path d="M95,9.63235294 C90.0779484,7.14392841 84.7365534,5.57372558 79.2420188,5 L78.2038459,5 L77.2769058,5 L71.2332565,5 L70.6400149,5 L70.0467732,5 L69.4906092,5 L68.7861347,5 L68.3782811,5 L67.2288754,5 C45.0335714,8.59163845 28.7997353,27.701756 29.0018668,50 C38.9546803,41.650695 49.5269176,34.0557297 60.6290621,27.2794118 C71.6225744,20.5490647 83.1121047,14.6499992 95,9.63235294 Z" id="Shape" fill="#F26A75"></path>
                <path d="M146.527529,5.67517055 C142.45049,-0.875491269 131.257166,-1.72670721 114.170666,2.97348517 C107.504055,4.88399688 100.967318,7.22040475 94.6008802,9.96825966 C82.6564899,15.1199121 71.1211333,21.1698366 60.0943062,28.0658508 C48.996238,34.8872677 38.4278825,42.5327803 28.4787234,50.9376531 C8.42710523,67.9619719 -4.61941898,85.4674129 1.53320323,95.3489197 C4.7577703,100.530234 12.6524,102.121638 24.1793007,100.234159 C34.2576015,98.3453097 44.0746233,95.2641502 53.4227881,91.0558306 C51.0808357,89.8733864 48.8482862,88.4862909 46.7512701,86.910779 C39.8400657,89.7922324 32.6482565,91.9503176 25.2912203,93.3504127 C17.4336546,94.6087319 11.9481842,93.7945253 9.9096648,90.5376991 C4.20181046,81.2853519 28.4416594,56.0449487 63.8748331,34.1353906 C86.7803784,19.997804 108.833452,10.7084474 123.177216,8.22881838 C130.997718,6.93348977 136.520252,7.74769633 138.558771,11.0415319 C142.26517,16.7779872 134.036965,28.7690292 118.877793,42.2774561 L118.877793,43.0176439 C118.8956,43.313452 118.8956,43.610061 118.877793,43.9058692 C119.159891,45.9414294 119.296138,47.9944977 119.285497,50.0494278 C142.005722,31.1376301 152.012999,14.5574239 146.527529,5.67517055 Z" id="Shape" fill="url(#linearGradient-17)"></path>
                <path d="M65.8438399,36.0014073 C27.1778972,59.7176388 8.7194683,82.7319881 12.4781403,88.8272813 C13.817865,90.9698692 18.5069014,91.5609279 25.354383,90.4526928 C32.0931855,89.2033959 38.6884811,87.285134 45.0408929,84.7268113 C43.3017405,83.2835076 41.6837712,81.702134 40.2029982,79.9983415 C27.7361158,84.5790466 21.9678568,84.3573996 21.2235653,83.138341 C20.4792738,81.9192824 21.6329256,77.8926948 32.0157918,68.1032846 C54.9872476,47.7462093 81.3410523,31.497643 109.905896,20.0797628 C113.716757,18.6305449 117.65306,17.5300476 121.665701,16.7919986 C126.168665,16.0531752 127.954964,16.7919986 128.289896,17.1614103 C129.034187,18.3804689 126.689669,23.6261152 117.125523,32.676702 C118.02244,34.7691792 118.744358,36.931378 119.283969,39.1414068 C133.61158,26.2119971 139.863628,15.8684693 137.51911,12.1004699 C136.179385,9.95788204 131.453134,9.36682331 124.642867,10.4750584 L124.233507,8 L124.642867,10.4750584 C109.757038,12.987058 87.8748679,22.4809389 65.8438399,36.0014073 Z" id="Shape" fill="url(#linearGradient-18)"></path>
                <path d="M44.6042949,86.0028443 C38.2505212,88.5753251 31.6538117,90.5042028 24.9135644,91.7604135 C18.0646147,92.8747817 13.3745731,92.280452 12.0345612,90.1260068 C8.31230589,83.9969815 26.7374695,60.8552681 65.4117019,37.007788 C87.4474531,23.4124957 109.334314,13.8660746 124,11.4887557 L123.590552,9 C109.222647,11.3401733 87.0752276,20.6637208 64.0344674,35.0019252 C28.3752619,56.9921249 4.10615743,82.3254292 9.83843056,91.6118311 C11.885671,94.8806445 17.2829411,95.6978479 25.28579,94.4348972 C32.6743003,93.0296489 39.8968768,90.8636205 46.837648,87.9715615 L44.6042949,86.0028443 Z" id="Shape" fill="#F16137"></path>
                <path d="M137.03766,12.7063641 C139.356787,16.4463192 133.356505,26.9929924 119,40.0828351 C119.220869,41.0552234 119.441739,42.0276117 119.625796,43 C134.68172,29.3491641 142.706638,17.2317097 139.17273,11.4347794 C137.148094,8.1062194 131.810419,7.28342929 123.895936,8.59241355 L124.300863,11.0981834 C131.037377,10.0135965 135.675632,10.6119893 137.03766,12.7063641 Z" id="Shape" fill="#F16137"></path>
            </g>
        </g>
        <circle id="Oval" fill="#FFFFFF" fill-rule="nonzero" cx="1761" cy="299" r="4"></circle>
        <circle id="Oval" fill="#FFFFFF" fill-rule="nonzero" cx="1802" cy="143" r="4"></circle>
    </g>
</svg>