<?xml version="1.0" encoding="UTF-8"?>
<svg width="3120px" height="4353px" viewBox="0 0 3120 4353" version="1.1" xmlns="http://www.w3.org/2000/svg" xmlns:xlink="http://www.w3.org/1999/xlink">
    <!-- Generator: Sketch 51.3 (57544) - http://www.bohemiancoding.com/sketch -->
    <title>blob-4</title>
    <desc>Created with Sketch.</desc>
    <defs>
        <linearGradient x1="50%" y1="0%" x2="48.4512267%" y2="72.0171636%" id="linearGradient-1">
            <stop stop-color="#1B1464" offset="0%"></stop>
            <stop stop-color="#0E055B" offset="70.0649869%"></stop>
            <stop stop-color="#0F0F36" offset="100%"></stop>
        </linearGradient>
        <linearGradient x1="4.35767628%" y1="6.25579354%" x2="92.235826%" y2="54.7742879%" id="linearGradient-2">
            <stop stop-color="#FF0101" offset="0%"></stop>
            <stop stop-color="#FFAB00" offset="100%"></stop>
        </linearGradient>
        <linearGradient x1="33.7032701%" y1="92.532341%" x2="90.150751%" y2="18.8138307%" id="linearGradient-3">
            <stop stop-color="#2E3191" offset="0%"></stop>
            <stop stop-color="#2C3594" offset="17%"></stop>
            <stop stop-color="#27439E" offset="35%"></stop>
            <stop stop-color="#1F59AF" offset="54%"></stop>
            <stop stop-color="#1477C6" offset="74%"></stop>
            <stop stop-color="#059FE3" offset="94%"></stop>
            <stop stop-color="#00ADEE" offset="100%"></stop>
        </linearGradient>
        <linearGradient x1="54.6394207%" y1="50%" x2="161.418014%" y2="311.034565%" id="linearGradient-4">
            <stop stop-color="#1B1464" offset="0%"></stop>
            <stop stop-color="#673EE0" offset="100%"></stop>
        </linearGradient>
        <linearGradient x1="44.108178%" y1="106.087055%" x2="0%" y2="35.0871122%" id="linearGradient-5">
            <stop stop-color="#2057AD" offset="0%"></stop>
            <stop stop-color="#1B1464" offset="100%"></stop>
        </linearGradient>
        <linearGradient x1="113.370609%" y1="-20.6644415%" x2="-110.127782%" y2="194.42535%" id="linearGradient-6">
            <stop stop-color="#2E3191" offset="0%"></stop>
            <stop stop-color="#00ADEE" offset="100%"></stop>
        </linearGradient>
        <linearGradient x1="50%" y1="0%" x2="18.698123%" y2="100%" id="linearGradient-7">
            <stop stop-color="#1B1464" offset="0%"></stop>
            <stop stop-color="#251880" offset="100%"></stop>
        </linearGradient>
        <linearGradient x1="-60.3352978%" y1="-51.0653203%" x2="99.3433559%" y2="84.1592043%" id="linearGradient-8">
            <stop stop-color="#0995DC" offset="0%"></stop>
            <stop stop-color="#3B2E91" offset="100%"></stop>
        </linearGradient>
        <linearGradient x1="40.8455902%" y1="82.2039453%" x2="52.5268605%" y2="17.427318%" id="linearGradient-9">
            <stop stop-color="#251880" offset="0%"></stop>
            <stop stop-color="#1B1464" offset="100%"></stop>
        </linearGradient>
        <linearGradient x1="72.5299491%" y1="57.6172781%" x2="27.3753582%" y2="18.9611809%" id="linearGradient-10">
            <stop stop-color="#1A1D75" offset="0%"></stop>
            <stop stop-color="#322189" offset="100%"></stop>
        </linearGradient>
        <linearGradient x1="34.6892843%" y1="100%" x2="34.6892843%" y2="-16.7054514%" id="linearGradient-11">
            <stop stop-color="#10105E" offset="0%"></stop>
            <stop stop-color="#271A77" offset="100%"></stop>
        </linearGradient>
    </defs>
    <g id="Page-1" stroke="none" stroke-width="1" fill="none" fill-rule="evenodd">
        <path d="M2209.88372,4247.00849 C2408.3918,4160.88907 2580.21416,3955.631 2722.75712,3651.38902 C2848.62786,3382.73205 2948.65293,3042.50396 3018.22998,2665.59304 C3080.27897,2329.46296 3115.24002,1977.13777 3119.30159,1672.72358 C3123.20841,1379.90816 3097.95705,1155.2292 3049.18424,1055.9761 C3023.77613,1004.27038 2993.20024,973.575759 2955.9363,960.983612 C2921.38431,949.307878 2880.78667,952.9432 2830.54362,970.769865 C2788.0092,985.861443 2740.46425,1009.93745 2670.02187,1050.54347 C2656.69341,1058.22657 2642.70321,1066.39643 2624.10736,1077.33237 C2620.92952,1079.20121 2586.29373,1099.60295 2575.79748,1105.76481 C2534.80418,1129.8301 2503.68086,1147.72965 2471.82481,1165.3708 C2372.05479,1220.62114 2282.54419,1263.08118 2189.66724,1296.81732 C2077.20152,1337.66879 1964.6286,1363.50863 1848.42243,1372.79257 C1717.20585,1383.27572 1582.89907,1372.4192 1443.84093,1337.79176 C1291.49294,1299.85497 1134.44825,1233.59332 971.698418,1136.34667 C673.474134,958.151016 437.312924,932.582095 270.140701,1044.91981 C119.305914,1146.27897 29.4603205,1358.18239 6.26687649,1645.47047 C-15.6868383,1917.40251 23.7778341,2243.50986 116.443161,2562.10926 C212.165168,2891.21806 358.641217,3192.85366 537.125604,3418.20557 C905.701124,3883.5639 1191.97989,4149.36128 1452.47085,4268.9325 C1579.5042,4327.24367 1702.57896,4351.85552 1829.25049,4345.69775 C1947.88056,4339.93089 2070.87873,4307.31349 2209.88372,4247.00849 Z" id="Rectangle" stroke="#979797" fill="url(#linearGradient-1)"></path>
        <path d="M723.296461,1678.20879 C123.818905,1423.71786 116.376414,230.279923 415.296962,70.7894369 C659.388535,-59.4467876 716.867349,183.392839 887.186557,582.759514 C1047.03957,957.584911 1541.34854,1091.47708 1772.16554,973.570794 C1906.92756,904.731453 2140.35514,550.933704 2588.13026,550.933704 C2706.68361,550.933704 2986.38637,728.849362 2875.59881,848.755799 C2526.72268,1226.3478 1178.2887,1871.36265 723.296461,1678.20879 Z" id="Shape" fill="url(#linearGradient-2)" fill-rule="nonzero"></path>
        <path d="M2828.14509,662.786559 C2453.71073,300.838754 2014.21876,965.943205 1830.39,1069.29 C1449.98702,1283.14896 920.261047,936.364414 791.750154,560.864832 C709.701864,321.125633 616.971737,14.9671848 366.39,182.714817 C115.808263,350.462448 237.63,1203.16 366.39,1626.29 C431.01,1838.65 1097.611,3132.32548 1986.871,3134.86548 C2335.871,3135.86548 2600.44254,2533.96308 2716.77264,2065.20103 C2833.10275,1596.43898 3089.24835,915.182605 2828.14509,662.786559 Z" id="Shape" fill="url(#linearGradient-3)" fill-rule="nonzero"></path>
        <path d="M2647.55994,2369.963 C2196.55292,3818.89695 1245.7473,3145.78544 627.178097,2177.79417 C229.9643,1556.19924 191.075868,740.29 660.39,740.29 C831.39,740.29 1227.45633,1411.71059 1855.13568,1116.17264 C2061.41487,1019.04768 2444.67786,414.796683 2772.91262,697.98096 C3022.49662,913.309359 2930.19214,1461.96077 2647.55994,2369.963 Z" id="Shape" fill="url(#linearGradient-4)" fill-rule="nonzero"></path>
        <path d="M1711.50514,1270.80745 C1857.56659,1228.17799 1889.90603,1405.03894 1972.67391,1586.16735 C2863.4663,3535.56864 1568.0498,3205.10633 1235.30627,2724.87676 C1006.97853,2395.33139 1776.08675,2191.18849 1606.51096,1631.2122 C1560.81936,1480.30823 1565.4437,1313.4369 1711.50514,1270.80745 Z" id="Shape" fill="url(#linearGradient-5)" fill-rule="nonzero" opacity="0.415736607"></path>
        <path d="M1762.80793,1564.65364 C1832.61524,1504.67307 1903.86336,1602.6533 1919.10685,1676.62527 C1938.66637,1771.54955 2457.89429,2901.45247 1875.82612,2716.30586 C1293.75795,2531.15925 1770.11231,2190.29114 1784.81433,2027.47117 C1802.25978,1834.29594 1654.23017,1657.94696 1762.80793,1564.65364 Z" id="Shape" fill="url(#linearGradient-6)" fill-rule="nonzero" opacity="0.625055804"></path>
        <path d="M1896.24728,1918.89009 C1931.02728,1906.50361 2071.28171,2393.16689 2018.31978,2579.91967 C1989.62396,2681.10599 1723.72882,2494.59335 1738.48995,2429.46671 C1753.25107,2364.34007 1831.89632,2396.81717 1877.07061,2296.4507 C1918.58546,2204.21464 1845.15442,1937.0862 1896.24728,1918.89009 Z" id="Shape" fill="url(#linearGradient-7)" fill-rule="nonzero"></path>
        <path d="M1497.66093,1776.75427 C1410.8766,2422.97144 780.353464,2186.80046 544.053857,1777.31729 C334.644546,1414.55616 477.528222,709.039721 754.776246,950.141255 C976.236199,1142.72814 1547.70915,1404.12873 1497.66093,1776.75427 Z" id="Shape" fill="url(#linearGradient-8)" fill-rule="nonzero" opacity="0.725948661"></path>
        <path d="M1144.51428,1954.05928 C1235.44338,1635.74923 709.008927,1141.00772 567.652999,1393.18824 C426.297072,1645.36876 1053.58518,2272.36932 1144.51428,1954.05928 Z" id="Shape" fill="url(#linearGradient-9)" fill-rule="nonzero"></path>
        <path d="M2467.37029,874.632647 C2057.23203,1121.63552 2018.77943,2104.56125 2405.89177,1971.0548 C2793.0041,1837.54835 2877.50855,627.629778 2467.37029,874.632647 Z" id="Shape" fill="url(#linearGradient-9)" fill-rule="nonzero"></path>
        <path d="M1910.12,3397.65 C1810.3,3451.4 1781.12,3568.75 1816.76,3652.75 C1862.44,3760.52 1954.63,3749.16 2051.45,3624.06 C2100.29,3561 2115.34,3287.15 1910.12,3397.65 Z" id="Shape" fill="url(#linearGradient-10)" fill-rule="nonzero" opacity="0.765178571"></path>
        <path d="M1730.76121,3802.7018 C1696.98121,3820.4918 1686.93121,3858.9718 1698.76121,3886.4118 C1713.96121,3921.6118 1780.08121,3905.1518 1812.98121,3864.0018 C1829.63121,3843.2418 1800.20121,3766.1318 1730.76121,3802.7018 Z" id="Shape" fill="url(#linearGradient-11)" fill-rule="nonzero" opacity="0.6359375"></path>
    </g>
</svg>