<svg id="Layer_1" data-name="Layer 1" xmlns="http://www.w3.org/2000/svg" viewBox="0 0 449 400"><circle cx="224.5" cy="200" r="199" fill="#003682"/><path d="M224.5,399.75C114.358,399.75,24.75,310.143,24.75,200S114.358.25,224.5.25,424.25,89.857,424.25,200,334.643,399.75,224.5,399.75Zm0-398C115.185,1.75,26.25,90.685,26.25,200S115.185,398.25,224.5,398.25,422.75,309.315,422.75,200,333.816,1.75,224.5,1.75Z" fill="#0055dc"/><polygon points="190.605 99.8 69.772 75.368 69.971 74.388 190.704 98.81 253.663 98.8 378.402 73.558 378.601 74.538 253.763 99.79 190.605 99.8" fill="#f63"/><polygon points="190.605 101.138 66.235 79.858 66.403 78.872 190.689 100.145 253.663 100.138 381.933 78.176 382.101 79.162 253.747 101.131 190.605 101.138" fill="#ff6b34"/><polygon points="190.605 102.476 62.637 84.56 62.776 83.57 190.674 101.481 253.663 101.476 385.688 82.982 385.826 83.973 253.733 102.471 190.605 102.476" fill="#fe7135"/><polygon points="190.605 103.814 59.095 89.493 59.202 88.499 190.659 102.817 253.663 102.814 389.108 88.059 389.215 89.053 253.717 103.811 190.605 103.814" fill="#fe7636"/><polygon points="190.605 105.152 55.823 94.668 55.901 93.671 190.644 104.154 253.663 104.152 392.514 93.348 392.592 94.345 253.702 105.151 190.605 105.152" fill="#fe7c37"/><polygon points="190.605 106.49 52.554 100.047 52.601 99.048 190.628 105.491 253.663 105.49 395.927 98.849 395.974 99.848 253.687 106.49 190.605 106.49" fill="#fd8138"/><polygon points="190.605 107.828 49.45 105.632 49.465 104.632 190.613 106.828 253.663 106.828 399.342 104.561 399.358 105.561 253.671 107.828 190.605 107.828" fill="#fd8739"/><polygon points="402.415 111.481 253.656 109.166 190.605 109.166 46.49 111.409 46.474 110.409 190.597 108.166 253.663 108.166 402.431 110.481 402.415 111.481" fill="#fd8c3b"/><polygon points="405.146 117.576 253.64 110.504 190.605 110.504 43.529 117.37 43.482 116.371 190.581 109.505 253.663 109.504 405.193 116.577 405.146 117.576" fill="#fd923c"/><polygon points="408.043 123.855 253.624 111.841 190.605 111.842 40.856 123.494 40.778 122.497 190.566 110.844 253.663 110.842 408.121 122.858 408.043 123.855" fill="#fc973d"/><polygon points="410.461 130.262 253.61 113.177 190.605 113.18 38.355 129.766 38.247 128.772 190.551 112.183 253.663 112.18 410.569 129.268 410.461 130.262" fill="#fc9d3e"/><polygon points="412.862 136.817 253.594 114.514 190.605 114.518 36.138 136.155 35.999 135.164 190.535 113.523 253.663 113.518 413 135.827 412.862 136.817" fill="#fca23f"/><polygon points="414.973 143.474 253.579 115.85 190.605 115.857 34.062 142.658 33.894 141.672 190.521 114.864 253.663 114.857 415.141 142.488 414.973 143.474" fill="#fba840"/><polygon points="416.724 150.188 253.564 117.185 190.605 117.195 32.324 149.222 32.124 148.242 190.505 116.205 253.663 116.195 416.923 149.208 416.724 150.188" fill="#fbad41"/><path d="M254.236,132.465H190.519V92.483h63.717Zm-61.717-2h59.717V94.483H192.519Z" fill="#0055dc"/><rect x="210.098" y="93.483" width="24.522" height="37.982" fill="#f6821f"/><path d="M235.37,132.215H209.348V92.733H235.37Zm-24.522-1.5H233.87V94.233H210.848Z" fill="#0055dc"/><rect x="191.519" y="93.483" width="18.592" height="37.982" fill="#f63"/><path d="M210.861,132.215H190.769V92.733h20.092Zm-18.592-1.5h17.092V94.233H192.269Z" fill="#0055dc"/><rect x="234.633" y="93.483" width="18.592" height="37.982" fill="#fbad41"/><path d="M253.974,132.215H233.882V92.733h20.092Zm-18.592-1.5h17.092V94.233H235.382Z" fill="#0055dc"/><polygon points="253.236 131.466 191.521 131.476 165.803 333.381 279.437 333.381 253.236 131.466" fill="#c5ebf5"/><path d="M280.29,334.131H164.951l25.91-203.4,63.034-.01Zm-113.635-1.5H278.583L252.576,132.216l-60.395.01Z" fill="#0055dc"/><polygon points="178.829 332.499 203.024 144.534 241.761 144.527 266.147 332.499 178.829 332.499" fill="#fff"/><path d="M260.887,132.224h-77.02V121.055h77.02Zm-75.52-1.5h74.02v-8.169h-74.02Z" fill="#0055dc"/><rect x="184.617" y="83.82" width="75.52" height="9.669" fill="#6ecce5"/><path d="M260.887,94.238h-77.02V83.07h77.02Zm-75.52-1.5h74.02V84.57h-74.02Z" fill="#0055dc"/><polygon points="260.137 83.83 184.617 83.83 222.471 58.086 260.137 83.83" fill="#0055dc"/><path d="M260.137,84.58h-75.52l-.422-1.371,37.854-25.743h.845L260.56,83.21Zm-73.084-1.5H257.71L222.47,58.994Z" fill="#0055dc"/><rect x="221.471" y="38.404" width="2" height="19.783" fill="#0055dc"/><path d="M259.218,171.707l-73.575-.009,5.216-40.983H253.9ZM187.346,170.2l70.165.009-4.935-37.992h-60.4Z" fill="#0055dc"/><path d="M271.764,268.445H173.318l6.424-50.419h85.5Zm-96.743-1.5h95.036l-6.139-47.419H181.062Z" fill="#0055dc"/><path d="M224.5,399.75A200.156,200.156,0,0,1,76.287,333.908l-1.132-1.253H373.846l-1.133,1.253A200.156,200.156,0,0,1,224.5,399.75Zm-145.957-65.6a198.234,198.234,0,0,0,291.914,0Z" fill="#6ecce5"/><rect x="213.872" y="347.533" width="123.596" height="1.5" fill="#6ecce5"/><rect x="174.955" y="376.124" width="106.183" height="1.5" fill="#6ecce5"/><rect x="130.166" y="362.112" width="132.303" height="1.5" fill="#6ecce5"/><path d="M224.5,400c-110.28,0-200-89.72-200-200S114.22,0,224.5,0s200,89.72,200,200S334.781,400,224.5,400Zm0-398c-109.177,0-198,88.822-198,198s88.823,198,198,198,198-88.823,198-198S333.678,2,224.5,2Z" fill="#0055dc"/><rect x="63.59" y="204.398" width="41.914" height="1.5" fill="#e2f5fa"/><rect x="50.66" y="204.398" width="7.086" height="1.5" fill="#e2f5fa"/><rect x="94.584" y="189.687" width="6.604" height="1.5" fill="#e2f5fa"/><path d="M114.051,196.847H76.792v-1.5h37.259a14.474,14.474,0,1,0-11.119-23.74l-1.152-.961a15.974,15.974,0,1,1,12.271,26.2Z" fill="#e2f5fa"/><path d="M109.276,191.228c-1.8,0-2.209-.035-2.3-.05l.238-1.481h0c.01,0,.822.074,6.434-.01a8.561,8.561,0,1,0-6.567-14.04l-1.152-.961a10.061,10.061,0,1,1,7.73,16.5C111.662,191.217,110.261,191.228,109.276,191.228Z" fill="#e2f5fa"/><rect x="103.278" y="265.879" width="32.494" height="1.5" fill="#e2f5fa"/><rect x="93.253" y="265.879" width="5.494" height="1.5" fill="#e2f5fa"/><rect x="127.307" y="254.474" width="5.118" height="1.5" fill="#e2f5fa"/><path d="M142.4,260.362H113.513v-1.5H142.4a11.053,11.053,0,1,0-8.492-18.129l-1.153-.961a12.553,12.553,0,1,1,9.645,20.59Z" fill="#e2f5fa"/><path d="M138.691,256c-1.006,0-1.641-.013-1.807-.04l.238-1.481h0c.015,0,.7.054,4.958-.009a6.469,6.469,0,1,0-4.958-10.609l-1.152-.961a7.969,7.969,0,1,1,6.121,13.07C140.721,255.994,139.565,256,138.691,256Z" fill="#e2f5fa"/><rect x="311.47" y="230.721" width="41.913" height="1.5" fill="#e2f5fa"/><rect x="298.539" y="230.721" width="7.087" height="1.5" fill="#e2f5fa"/><rect x="342.464" y="216.01" width="6.603" height="1.5" fill="#e2f5fa"/><path d="M361.931,223.17h-37.26v-1.5h37.26a14.474,14.474,0,1,0-11.12-23.74l-1.152-.961a15.974,15.974,0,1,1,12.272,26.2Z" fill="#e2f5fa"/><path d="M357.156,217.55c-1.8,0-2.209-.034-2.3-.049l.238-1.481h0c.011,0,.823.074,6.433-.01a8.561,8.561,0,1,0-6.566-14.041l-1.152-.961a10.061,10.061,0,1,1,7.728,16.5C359.542,217.54,358.141,217.55,357.156,217.55Z" fill="#e2f5fa"/></svg>