<svg xmlns="http://www.w3.org/2000/svg" viewBox="0 0 304 95" class="main-logo"><path d="M0 15.577a54.31 54.31 0 0 0 9.428-.806c3.052-.537 5.813-1.432 8.282-2.685 2.47-1.254 4.58-2.865 6.33-4.835 1.751-1.97 2.896-4.386 3.435-7.251H40v94H23.165V27.663H0V15.577zM76 95c-5.523 0-10-4.477-10-10s4.477-10 10-10 10 4.477 10 10-4.477 10-10 10zm12-79.423a54.31 54.31 0 0 0 9.428-.806c3.052-.537 5.813-1.432 8.282-2.685 2.47-1.254 4.58-2.865 6.33-4.835 1.751-1.97 2.896-4.386 3.435-7.251H128v94h-16.835V27.663H88V15.577zM164 95c-5.523 0-10-4.477-10-10s4.477-10 10-10 10 4.477 10 10-4.477 10-10 10zm12-79.423a54.31 54.31 0 0 0 9.428-.806c3.052-.537 5.813-1.432 8.282-2.685 2.47-1.254 4.58-2.865 6.33-4.835 1.751-1.97 2.896-4.386 3.435-7.251H216v94h-16.835V27.663H176V15.577zM252 95c-5.523 0-10-4.477-10-10s4.477-10 10-10 10 4.477 10 10-4.477 10-10 10zm12-79.423a54.31 54.31 0 0 0 9.428-.806c3.052-.537 5.813-1.432 8.282-2.685 2.47-1.254 4.58-2.865 6.33-4.835 1.751-1.97 2.896-4.386 3.435-7.251H304v94h-16.835V27.663H264V15.577z" fill-rule="evenodd"/></svg>
