<svg id="Layer_1" data-name="Layer 1" xmlns="http://www.w3.org/2000/svg" xmlns:xlink="http://www.w3.org/1999/xlink" viewBox="0 0 692.92 654.39"><defs><style>.cls-1{fill:#5c5e6f}.cls-10{fill:#78c5e3}.cls-15{fill:#fff}.cls-25{fill:#78c3e3}</style><linearGradient id="New_Gradient_Swatch_8" x1="434.17" y1="-821.29" x2="581.59" y2="-821.29" gradientTransform="rotate(45 -887.8744324 -318.68963159)" gradientUnits="userSpaceOnUse"><stop offset="0" stop-color="#7f78b7"/><stop offset="1" stop-color="#b878b2"/></linearGradient><linearGradient id="linear-gradient" x1="-1622.92" y1="387.88" x2="-1492.25" y2="387.88" gradientTransform="rotate(-114.72 -526.5683955 -196.68470932)" gradientUnits="userSpaceOnUse"><stop offset=".76" stop-color="#7f78b7"/><stop offset="1" stop-color="#b878b2"/></linearGradient><linearGradient id="New_Gradient_Swatch_8-2" x1="-1613.26" y1="381.21" x2="-1482.59" y2="381.21" gradientTransform="rotate(-114.72 -526.5683955 -196.68470932)" xlink:href="#New_Gradient_Swatch_8"/><linearGradient id="New_Gradient_Swatch_8-3" x1="219.28" y1="428.78" x2="369.54" y2="278.52" xlink:href="#New_Gradient_Swatch_8"/><linearGradient id="New_Gradient_Swatch_8-4" x1="261.92" y1="355.4" x2="336.88" y2="355.4" xlink:href="#New_Gradient_Swatch_8"/><linearGradient id="linear-gradient-2" x1="496.49" y1="187.53" x2="571.25" y2="187.53" gradientUnits="userSpaceOnUse"><stop offset="0" stop-color="#b878b2"/><stop offset="1" stop-color="#7f78b7"/></linearGradient><linearGradient id="New_Gradient_Swatch_8-5" x1="491.15" y1="183.86" x2="565.92" y2="183.86" xlink:href="#New_Gradient_Swatch_8"/><linearGradient id="linear-gradient-3" x1="-284.08" y1="517.67" x2="-220.45" y2="517.67" gradientTransform="rotate(-41.79 -337.84256497 -564.37337458)" xlink:href="#linear-gradient-2"/><linearGradient id="New_Gradient_Swatch_9" x1="-288.62" y1="514.55" x2="-224.98" y2="514.55" gradientTransform="rotate(-41.79 -337.84256497 -564.37337458)" gradientUnits="userSpaceOnUse"><stop offset="0" stop-color="#7f77b8"/><stop offset="1" stop-color="#78c3e3"/></linearGradient><linearGradient id="New_Gradient_Swatch_7" x1="459.4" y1="337.38" x2="515.07" y2="337.38" gradientUnits="userSpaceOnUse"><stop offset="0" stop-color="#f06977"/><stop offset="1" stop-color="#f7935c"/></linearGradient><linearGradient id="New_Gradient_Swatch_7-2" x1="445.6" y1="492.24" x2="501.26" y2="492.24" xlink:href="#New_Gradient_Swatch_7"/><linearGradient id="New_Gradient_Swatch_6" x1="209.14" y1="411.11" x2="337.52" y2="282.74" gradientUnits="userSpaceOnUse"><stop offset="0" stop-color="#7f78b7"/><stop offset="1" stop-color="#77c3e0"/></linearGradient><linearGradient id="linear-gradient-4" x1="302.21" y1="291.87" x2="302.21" y2="57.94" gradientUnits="userSpaceOnUse"><stop offset="0" stop-color="#dae5f5"/><stop offset="1" stop-color="#eef3f9"/></linearGradient><linearGradient id="New_Gradient_Swatch_6-2" x1="289.04" y1="592.01" x2="289.04" y2="-239.1" xlink:href="#New_Gradient_Swatch_6"/><linearGradient id="linear-gradient-5" x1="331.21" y1="363.13" x2="434.7" y2="363.13" xlink:href="#linear-gradient-2"/><linearGradient id="linear-gradient-6" x1="323.83" y1="358.05" x2="427.32" y2="358.05" gradientUnits="userSpaceOnUse"><stop offset=".06" stop-color="#a9b0cf"/><stop offset=".72" stop-color="#dce6f4"/><stop offset="1" stop-color="#bac2da"/></linearGradient><linearGradient id="New_Gradient_Swatch_17_copy" x1="313.83" y1="358.05" x2="437.32" y2="358.05" xlink:href="#linear-gradient-4"/><linearGradient id="New_Gradient_Swatch_7-3" x1="-598.15" y1="315.8" x2="-534.66" y2="315.8" gradientTransform="rotate(-90 -108.27 -161.19)" xlink:href="#New_Gradient_Swatch_7"/><filter id="AI_GaussianBlur_4"><feGaussianBlur stdDeviation="4"/></filter><linearGradient id="New_Gradient_Swatch_7-4" x1="102.09" y1="154.23" x2="216.87" y2="154.23" xlink:href="#New_Gradient_Swatch_7"/><linearGradient id="linear-gradient-7" x1="188.17" y1="120.16" x2="198.93" y2="120.16" gradientUnits="userSpaceOnUse"><stop offset="0" stop-color="#7d8cc1"/><stop offset="1" stop-color="#7c9dcb"/></linearGradient><linearGradient id="New_Gradient_Swatch_7-5" x1="-517.54" y1="526.38" x2="-434.68" y2="526.38" gradientTransform="rotate(-90 -108.27 -161.19)" xlink:href="#New_Gradient_Swatch_7"/></defs><title>shopping cart optimized</title><circle class="cls-1" cx="198.56" cy="591.95" r="31.46"/><circle class="cls-1" cx="515.41" cy="591.95" r="31.46"/><path d="M198.56 595a10.75 10.75 0 0 1-10.56-8.71l-7.1-35.48h35.31l-7.1 35.48a10.75 10.75 0 0 1-10.55 8.71zm317.79 0a10.77 10.77 0 0 1-10.56-8.66l-7.1-35.48H534l-7.09 35.48a10.77 10.77 0 0 1-10.56 8.66z" fill="#c8d0e2"/><path d="M535.72 231.72c-37.33-37.33-85.43-28.48-111.21 8.85-26.17 37.71-51.19 153.55-51.19 153.55s121.23-28.1 153.17-50.8c38.1-27.32 46.18-74.66 9.23-111.6zm-72 72a33.2 33.2 0 1 1 46.95 0 33.33 33.33 0 0 1-46.91-.04z" fill="url(#New_Gradient_Swatch_8)"/><path d="M535.72 231.72c-37.33-37.33-85.43-28.48-111.21 8.85-26.17 37.71-51.19 153.55-51.19 153.55s121.23-28.1 153.17-50.8c38.1-27.32 46.18-74.66 9.23-111.6zm-72 72a33.2 33.2 0 1 1 46.95 0 33.33 33.33 0 0 1-46.91-.04z" stroke-miterlimit="10" fill="none" stroke="#7f77b8" stroke-width="8"/><path d="M371.24 471.53c-12.84 34.73 6.92 62.79 38.26 68.26 31.71 5.61 112.85-12.43 112.85-12.43s-53.46-69-77.3-82.68c-28.58-16.26-61.11-7.52-73.81 26.85zm67 24.74a23.29 23.29 0 1 1-13.77-29.91 23.38 23.38 0 0 1 13.73 29.91z" fill="url(#linear-gradient)"/><path d="M361.13 465.55c-12.83 34.74 6.92 62.79 38.27 68.26 31.7 5.61 112.84-12.43 112.84-12.43s-53.46-69-77.29-82.68c-28.59-16.26-61.12-7.52-73.82 26.85zm67 24.74a23.28 23.28 0 1 1-13.77-29.91 23.37 23.37 0 0 1 13.73 29.91z" fill="url(#New_Gradient_Swatch_8-2)"/><path d="M215.75 290.21h157.32a19.68 19.68 0 0 1 19.68 19.68v87.54a19.68 19.68 0 0 1-19.68 19.68H215.75a19.68 19.68 0 0 1-19.68-19.68v-87.55a19.67 19.67 0 0 1 19.68-19.67z" fill="url(#New_Gradient_Swatch_8-3)"/><path d="M336.32 388.56c-23.15 0-41.91-17.48-41.91-39.05 0-15.84 10.13-29.48 24.69-35.6a49.64 49.64 0 0 0-16.24-1.05c-22.06 2.19-39.48 19.19-40.85 39.82-1.65 24.86 19.5 45.51 45.83 45.51a47.87 47.87 0 0 0 29-9.64z" fill="url(#New_Gradient_Swatch_8-4)"/><path d="M533.87 150.15a37.38 37.38 0 1 1-37.38 37.38 37.38 37.38 0 0 1 37.38-37.38z" fill="url(#linear-gradient-2)"/><path class="cls-10" d="M533.87 157.16a30.37 30.37 0 1 0 30.37 30.37 30.37 30.37 0 0 0-30.37-30.37zm0 56.07a25.7 25.7 0 1 1 25.7-25.7 25.7 25.7 0 0 1-25.7 25.7zm3.13-27.65c-1.4-.59-6.53-1.4-6.53-3.64 0-1.66 1.92-2.14 3.07-2.14a4.51 4.51 0 0 1 3 1 2.54 2.54 0 0 1 .73 1.11c.17.48.28 1 .94 1h3.43c.8 0 1-.14 1-1 0-3.79-3-5.92-6.36-6.66v-2.94c0-.66-.21-1.07-1-1.07h-2.78c-.8 0-1 .4-1 1.07v2.83c-3.63.7-6.67 3-6.67 7.1 0 4.68 3.25 6.15 6.77 7.32 3 1 6.08 1 6.08 3.09s-1.53 2.51-3.42 2.51a4.5 4.5 0 0 1-3.43-1.22 2.64 2.64 0 0 1-.66-1.51c-.07-.92-.45-1-1.26-1h-3.38c-.81 0-1 .19-1 1 0 4.2 3.36 6.74 7 7.55v2.87c0 .66.21 1.07 1 1.07h2.73c.8 0 1-.41 1-1.07V200c4.12-.63 7-3.13 7-7.54-.06-5-3.76-6.07-6.26-6.88z"/><path d="M528.54 146.48a37.39 37.39 0 1 1-37.39 37.38 37.38 37.38 0 0 1 37.39-37.38z" fill="url(#New_Gradient_Swatch_8-5)"/><path class="cls-10" d="M528.54 153.49a30.38 30.38 0 1 0 30.37 30.37 30.38 30.38 0 0 0-30.37-30.37zm0 56.08a25.71 25.71 0 1 1 25.7-25.71 25.7 25.7 0 0 1-25.7 25.71zm3.11-27.66c-1.4-.58-6.54-1.39-6.54-3.64 0-1.66 1.92-2.13 3.07-2.13a4.49 4.49 0 0 1 3 1 2.46 2.46 0 0 1 .74 1.1c.17.48.28 1 .94 1h3.42c.81 0 1-.15 1-1 0-3.79-3-5.93-6.36-6.67v-2.94c0-.66-.21-1.07-1-1.07h-2.73c-.8 0-1 .41-1 1.07v2.83c-3.63.7-6.67 3-6.67 7.11 0 4.67 3.25 6.14 6.78 7.32 3 1 6.08 1 6.08 3.09s-1.54 2.5-3.42 2.5a4.43 4.43 0 0 1-3.43-1.22 2.58 2.58 0 0 1-.66-1.5c-.07-.93-.45-1-1.26-1h-3.39c-.8 0-1 .19-1 1 0 4.19 3.35 6.73 7 7.54v2.87c0 .66.21 1.07 1 1.07h2.73c.8 0 1-.41 1-1.07v-2.79c4.12-.63 7-3.13 7-7.55-.09-5.04-3.79-6.11-6.3-6.92z"/><path d="M425.87 161.63a31.82 31.82 0 1 1-2.51 44.92 31.83 31.83 0 0 1 2.51-44.92z" fill="url(#linear-gradient-3)"/><path class="cls-10" d="M429.85 166.08a25.85 25.85 0 1 0 36.5 2 25.86 25.86 0 0 0-36.5-2zm31.8 35.58a21.87 21.87 0 1 1 1.73-30.89 21.87 21.87 0 0 1-1.73 30.89zm-13.71-19.31c-1.22.42-4.93 2.82-6.21 1.39-.94-1.05 0-2.44.74-3.1a3.87 3.87 0 0 1 2.45-1 2.16 2.16 0 0 1 1.09.29c.38.2.74.47 1.16.09l2.17-1.94c.51-.46.56-.67.06-1.23-2.15-2.4-5.24-2.07-7.81-.62l-1.67-1.87c-.38-.42-.74-.56-1.25-.1l-1.73 1.55c-.51.45-.41.83 0 1.25l1.61 1.8c-1.91 2.5-2.54 5.67-.21 8.29 2.66 3 5.55 2.05 8.46.8 2.44-1.06 4.44-2.8 5.61-1.49s.44 2.46-.76 3.53a3.8 3.8 0 0 1-2.86 1.17 2.19 2.19 0 0 1-1.27-.58c-.57-.55-.88-.4-1.39.06l-2.15 1.92c-.51.46-.53.69-.06 1.23 2.38 2.66 5.95 2.37 8.72.82l1.62 1.83c.38.42.74.55 1.25.1l1.73-1.55c.51-.45.42-.83 0-1.25l-1.58-1.77c2.26-2.74 2.63-5.93.13-8.73-2.79-3.24-5.79-1.81-7.85-.89z"/><path d="M420.41 162.33a31.82 31.82 0 1 1-2.52 44.92 31.81 31.81 0 0 1 2.52-44.92z" fill="url(#New_Gradient_Swatch_9)"/><path d="M424.39 166.77a25.85 25.85 0 1 0 36.5 2 25.85 25.85 0 0 0-36.5-2zm31.8 35.58a21.87 21.87 0 1 1 1.73-30.88 21.86 21.86 0 0 1-1.73 30.88z" fill="#ba78b1"/><path class="cls-15" d="M446.16 194.13l-3.78 3.78-2.22-2.21 3.78-3.79-1.27-1.27-3.78 3.78-2.22-2.22 2.94-2.93-11.18-2.39 3.64-3.63 8.48 2.16-2.13-8.51 3.53-3.53 2.34 11.21 3-3 2.22 2.22-3.78 3.78 1.27 1.28 3.78-3.78 2.22 2.21-3.78 3.78 1.89 1.89-3 3z"/><path d="M498.12 363.23l-8-4.87-6.38 6.86-4.49-8.22-9 2.75.22-9.36-9.12-2.11 4.86-8-6.85-6.38 8.23-4.49-2.75-9 9.36.22 2.11-9.13 8 4.87 6.38-6.85 4.49 8.23 9-2.75-.22 9.36 9.12 2.11-4.87 8 6.86 6.38-8.23 4.49 2.75 9-9.36-.22z" fill="url(#New_Gradient_Swatch_7)" stroke-width="2" stroke="#fff" stroke-miterlimit="10"/><path class="cls-15" d="M479.28 338l2 4.62-4.59 1.93-1.95-4.62zm14.83-6.52l.57-.24 2.16 5.11-.58.24-13.25 4-1-2.41z"/><path d="M484.32 518.09l-8-4.87-6.39 6.85-4.49-8.22-8.95 2.75.22-9.37-9.13-2.11 4.87-8-6.85-6.38 8.22-4.49-2.75-8.95 9.36.21 2.11-9.12 8 4.87 6.39-6.86 4.48 8.23 9-2.75-.22 9.36 9.13 2.11-4.87 8 6.85 6.39-8.3 4.48 2.75 9-9.37-.22z" fill="url(#New_Gradient_Swatch_7-2)" stroke-width="2" stroke="#fff" stroke-miterlimit="10"/><path class="cls-15" d="M464.93 495.52l1.09 2.59a1.93 1.93 0 0 1-1 2.54l-2.55 1.08a2 2 0 0 1-2.55-1l-1.09-2.59a1.94 1.94 0 0 1 1-2.54l2.55-1.07a1.93 1.93 0 0 1 2.55.99zM484 485l.76-.32 2.87 6.82-.76.32-16 4.83a1.94 1.94 0 0 1-2.35-1.1 2 2 0 0 1 .85-2.46z"/><rect x="190.67" y="289.68" width="165.32" height="114.48" rx="19.68" ry="19.68" fill="url(#New_Gradient_Swatch_6)"/><path class="cls-15" d="M308.56 378.42a35.23 35.23 0 0 1-14.47-67.35 39.19 39.19 0 0 0-13.66-.95A38.61 38.61 0 1 0 309 378.41z"/><path d="M306.45 57.94h-8.48a117 117 0 0 0 0 233.93h8.48a117 117 0 0 0 0-233.93z" fill="url(#linear-gradient-4)"/><path d="M289 59.48a116.89 116.89 0 1 0 117 117 117.1 117.1 0 0 0-117-117zm80.31 189.06A81.66 81.66 0 0 0 312 184.61a42 42 0 1 0-45.94 0 81.69 81.69 0 0 0-57.35 63.94 108 108 0 1 1 160.63 0z" fill="url(#New_Gradient_Swatch_6-2)"/><path d="M383 311.38a51.75 51.75 0 1 1-51.75 51.75A51.74 51.74 0 0 1 383 311.38z" fill="url(#linear-gradient-5)"/><path class="cls-10" d="M383 321.09a42 42 0 1 0 42 42 42 42 0 0 0-42-42zm0 77.61a35.58 35.58 0 1 1 35.57-35.57A35.57 35.57 0 0 1 383 398.7zm4.3-38.27c-1.93-.81-9-1.94-9-5 0-2.3 2.66-3 4.25-3a6.25 6.25 0 0 1 4.11 1.37 3.48 3.48 0 0 1 1 1.53c.25.67.39 1.38 1.31 1.38h4.74c1.11 0 1.4-.2 1.4-1.43 0-5.24-4.11-8.2-8.8-9.22V342c0-.92-.29-1.48-1.4-1.48h-3.78c-1.11 0-1.4.56-1.4 1.48v3.92c-5 1-9.23 4.12-9.23 9.83 0 6.47 4.5 8.5 9.38 10.13 4.11 1.38 8.41 1.43 8.41 4.28s-2.12 3.46-4.74 3.46c-1.79 0-3.77-.46-4.74-1.68a3.49 3.49 0 0 1-.91-2.09c-.1-1.27-.63-1.42-1.75-1.42h-4.69c-1.11 0-1.4.26-1.4 1.42 0 5.81 4.65 9.33 9.67 10.45v4c0 .92.29 1.48 1.4 1.48h3.78c1.11 0 1.4-.56 1.4-1.48v-3.87c5.71-.87 9.62-4.33 9.62-10.44-.06-6.99-5.19-8.44-8.67-9.56z"/><path d="M375.58 306.31a51.75 51.75 0 1 1-51.75 51.74 51.74 51.74 0 0 1 51.75-51.74z" stroke-width="20" fill="url(#linear-gradient-6)" stroke="url(#New_Gradient_Swatch_17_copy)" stroke-miterlimit="10"/><path class="cls-15" d="M375.58 316a42 42 0 1 0 42 42 42 42 0 0 0-42-42zm0 77.62a35.58 35.58 0 1 1 35.57-35.58 35.58 35.58 0 0 1-35.57 35.59z"/><path d="M395 362.54a15.17 15.17 0 0 1-4.53 7.44 14.71 14.71 0 0 1-11.77 4.1 17.26 17.26 0 0 1-9.55-4.33l-2.55 2.38-1.88-2 2.35-2.18-.58-.62c-.61-.66-1.14-1.32-1.64-1.93l-2.43 2.26-1.91-2.06 2.72-2.53a17.85 17.85 0 0 1-3.1-10.1 14.88 14.88 0 0 1 5-11 16.1 16.1 0 0 1 6.71-3.78l1.7 3.49a13 13 0 0 0-5.68 3.13 9.82 9.82 0 0 0-3.34 7.32 13.36 13.36 0 0 0 2.39 7.53l11.5-10.66 1.91 2.06-11.86 11c.45.57 1 1.23 1.52 1.8l.69.75 11.95-11.11 1.88 2-11.66 10.84a13.53 13.53 0 0 0 7.28 3.29 10.69 10.69 0 0 0 8-3 14.65 14.65 0 0 0 3.76-6z" stroke-linecap="round" stroke-linejoin="round" stroke="#fff" fill="#fff"/><path d="M372.92 327.11l25.62-26a5.44 5.44 0 0 0 0-7.61l-25-25.59c-2.65-2.69-8.47-2.69-9.72-2.69h-21.16a5.16 5.16 0 0 0-5.33 5.13v22.68a11.61 11.61 0 0 0 3.54 9l24.53 25.14a5.24 5.24 0 0 0 7.52-.06z" fill="url(#New_Gradient_Swatch_7-3)"/><path class="cls-15" d="M355 278.09a4.91 4.91 0 1 1-4.9-5 4.94 4.94 0 0 1 4.9 5z"/><path class="cls-25" d="M347.15 278.09a2.94 2.94 0 1 1 2.94 3 3 3 0 0 1-2.94-3z"/><path d="M561.59 227.05a8.82 8.82 0 0 0-8.83 8.82v70.63h-35.31v-76.14a8.83 8.83 0 1 0-17.65 0v76.14h-37.34v-82.39a8.83 8.83 0 1 0-17.65 0v82.39h-37.7v-89.75a8.83 8.83 0 0 0-17.66 0v89.75h-35.71l-4-97a9 9 0 0 0-9.18-8.45 8.82 8.82 0 0 0-8.46 9.18l4 96.31h-37.27l-13.54-106.62a8.83 8.83 0 0 0-17.52 2.22L281 306.49h-41.29L215.2 192.81a8.83 8.83 0 0 0-17.26 3.73l23.71 110h-41.39l-48.53-160.21A26.47 26.47 0 0 0 111.57 128l-33.76-6.75a8.83 8.83 0 1 0-3.47 17.31l33.76 6.75a8.83 8.83 0 0 1 6.73 6.1L199 429.13l-46 85.49a26.48 26.48 0 0 0 23.31 39h367.63a8.83 8.83 0 0 0 0-17.66H176.26a8.82 8.82 0 0 1-7.77-13L214 438.52l331.94-24.9a26.58 26.58 0 0 0 24.51-26.4V235.87a8.82 8.82 0 0 0-8.86-8.82zm-346.71 193.7l-29.27-96.6h39.85l20.33 94.28zm48.69-3.66l-20-92.94h39.75l11.51 90.6zm48.84-3.66l-11.34-89.28h35.73l3.61 87.18zm77-5.78L358 410l-3.55-85.86h35v83.5zm55.36-4.15l-37.7 2.83v-82.18h37.7zm55-4.12l-37.34 2.8v-78h37.37zm53-12.16a8.86 8.86 0 0 1-8.17 8.8l-27.14 2v-73.87h35.31z" fill="#6c689b" filter="url(#AI_GaussianBlur_4)"/><path d="M560.49 224.19a8.83 8.83 0 0 0-8.83 8.83v70.62h-35.31V227.5a8.83 8.83 0 0 0-17.66 0v76.14h-37.33v-82.39a8.83 8.83 0 0 0-17.66 0v82.39H406v-89.75a8.83 8.83 0 1 0-17.65 0v89.75h-35.72l-4-97a9 9 0 0 0-9.18-8.46 8.81 8.81 0 0 0-8.45 9.18l4 96.31h-37.28l-13.53-106.61a8.83 8.83 0 0 0-17.52 2.22l13.25 104.36h-41.31L214.09 190a8.83 8.83 0 0 0-17.26 3.72l23.72 110h-41.39l-48.54-160.25a26.46 26.46 0 0 0-20.15-18.29l-33.77-6.75a8.83 8.83 0 1 0-3.47 17.31l33.77 6.75a8.86 8.86 0 0 1 6.74 6.1l84.14 277.68-46 85.5a26.47 26.47 0 0 0 23.31 39h367.64a8.83 8.83 0 1 0 0-17.65H175.15a8.83 8.83 0 0 1-7.77-13l45.49-84.48 331.94-24.89a26.6 26.6 0 0 0 24.51-26.41V233a8.83 8.83 0 0 0-8.83-8.81zm-346.71 193.7l-29.27-96.6h39.84l20.34 94.28zm48.68-3.65l-20-92.95h39.75l11.51 90.61zm48.85-3.66L300 321.29h35.7l3.61 87.19zm77-5.78l-31.43 2.35-3.56-85.86h35v83.51zm55.35-4.15L406 403.48v-82.19h37.7zm55-4.13l-37.33 2.8v-78h37.33zm53-12.16a8.86 8.86 0 0 1-8.17 8.8l-27.14 2v-73.87h35.31z" fill="#c3d7ed"/><path d="M570.38 224.26L139.1 171.45l5.6 18.46 423.55 51.87a7.79 7.79 0 0 0 1.07.07 8.83 8.83 0 0 0 1.06-17.59z" fill="#dce6f4"/><path d="M104.94 161.93L152 208.79a9.75 9.75 0 0 0 13.76 0L212 163.12c4.86-4.86 4.86-15.49 4.86-17.78v-38.76c0-5.35-3.89-9.75-9.26-9.75l-41 .06c-6.48 0-11.35 1.61-16.21 6.46l-45.45 44.87a9.67 9.67 0 0 0 0 13.71z" fill="url(#New_Gradient_Swatch_7-4)"/><path class="cls-15" d="M193.55 129.13a9 9 0 1 1 9-9 9 9 0 0 1-9 9z"/><path d="M193.55 114.78a5.39 5.39 0 1 1-5.38 5.38 5.38 5.38 0 0 1 5.38-5.38z" fill="url(#linear-gradient-7)"/><path class="cls-15" d="M146.41 165.82a11.26 11.26 0 0 1-13 .81 13.3 13.3 0 0 1-3.56-3.21l-.09-.1a13.28 13.28 0 0 1-2.26-4.28 12 12 0 0 1-.52-4.54 11 11 0 0 1 1.28-4.36 11.67 11.67 0 0 1 3.15-3.69 11.27 11.27 0 0 1 13-.81 13.3 13.3 0 0 1 3.56 3.21l.08.11a13 13 0 0 1 2.27 4.27 12.24 12.24 0 0 1 .52 4.55 11 11 0 0 1-1.28 4.35 11.58 11.58 0 0 1-3.15 3.69zm-3.73-5a3.59 3.59 0 0 0 1.49-3.42 7.67 7.67 0 0 0-1.68-3.91l-.08-.11a7.21 7.21 0 0 0-3.57-2.55 3.76 3.76 0 0 0-3.7.6 3.62 3.62 0 0 0-1.51 3.4 7.59 7.59 0 0 0 1.69 3.93l.09.11a7.23 7.23 0 0 0 3.56 2.55 3.78 3.78 0 0 0 3.71-.59zm11.15-31.26l6.4-5 2 59.29-6.41 5zm30.87 37.37a11.23 11.23 0 0 1-8.8 2.37 11.24 11.24 0 0 1-4.22-1.55 13.51 13.51 0 0 1-3.56-3.22l-.09-.1a13.24 13.24 0 0 1-2.26-4.27 12.26 12.26 0 0 1-.52-4.55 11 11 0 0 1 1.28-4.36 11.67 11.67 0 0 1 3.15-3.69 11.27 11.27 0 0 1 13-.81 13.3 13.3 0 0 1 3.56 3.21l.09.11a13.24 13.24 0 0 1 2.26 4.27 12.24 12.24 0 0 1 .52 4.55 11 11 0 0 1-1.28 4.35 11.67 11.67 0 0 1-3.13 3.7zM181 162a3.59 3.59 0 0 0 1.49-3.42 7.74 7.74 0 0 0-1.67-3.91l-.09-.11a7.27 7.27 0 0 0-3.57-2.55 3.76 3.76 0 0 0-3.7.6 3.62 3.62 0 0 0-1.51 3.4 7.59 7.59 0 0 0 1.69 3.93l.09.11a7.29 7.29 0 0 0 3.57 2.56 3.79 3.79 0 0 0 3.7-.61z"/><path d="M584.86 246l33.83-34a7.06 7.06 0 0 0 0-9.94l-33-33.4c-3.5-3.51-11.17-3.51-12.83-3.51h-28a6.77 6.77 0 0 0-7 6.69v29.61c0 4.68 1.17 8.19 4.67 11.7L575 246a7 7 0 0 0 9.86 0z" fill="url(#New_Gradient_Swatch_7-5)"/><path class="cls-15" d="M561.18 182.05a6.48 6.48 0 1 1-6.48-6.47 6.48 6.48 0 0 1 6.48 6.47z"/><path class="cls-25" d="M550.82 182.05a3.89 3.89 0 1 1 3.88 3.89 3.88 3.88 0 0 1-3.88-3.89z"/></svg>